<svg width="56" height="28" viewBox="0 0 56 28" fill="none" xmlns="http://www.w3.org/2000/svg">
<rect width="56" height="28" fill="#FF7070"/>
<path d="M10.7441 14.502H8.20801L8.19434 13.251H10.4092C10.7829 13.251 11.0996 13.1963 11.3594 13.0869C11.6237 12.973 11.8242 12.8112 11.9609 12.6016C12.0977 12.3874 12.166 12.1299 12.166 11.8291C12.166 11.4964 12.1022 11.2253 11.9746 11.0156C11.847 10.806 11.651 10.6533 11.3867 10.5576C11.127 10.4619 10.7943 10.4141 10.3887 10.4141H8.72754V19H7.01172V9.04688H10.3887C10.9355 9.04688 11.4232 9.09928 11.8516 9.2041C12.2845 9.30892 12.6514 9.47298 12.9521 9.69629C13.2575 9.91504 13.4876 10.193 13.6426 10.5303C13.8021 10.8675 13.8818 11.2686 13.8818 11.7334C13.8818 12.1436 13.7839 12.5195 13.5879 12.8613C13.3919 13.1986 13.1025 13.4743 12.7197 13.6885C12.3369 13.9027 11.8607 14.0303 11.291 14.0713L10.7441 14.502ZM10.6689 19H7.66797L8.44043 17.6396H10.6689C11.0563 17.6396 11.3799 17.5758 11.6396 17.4482C11.8994 17.3161 12.0931 17.1361 12.2207 16.9082C12.3529 16.6758 12.4189 16.4046 12.4189 16.0947C12.4189 15.7712 12.362 15.4909 12.248 15.2539C12.1341 15.0124 11.9541 14.8278 11.708 14.7002C11.4619 14.568 11.1406 14.502 10.7441 14.502H8.81641L8.83008 13.251H11.3389L11.7285 13.7227C12.2754 13.7409 12.7243 13.8617 13.0752 14.085C13.4307 14.3083 13.695 14.5977 13.8682 14.9531C14.0413 15.3086 14.1279 15.6914 14.1279 16.1016C14.1279 16.735 13.9889 17.266 13.7109 17.6943C13.4375 18.1227 13.0433 18.4486 12.5283 18.6719C12.0133 18.8906 11.3936 19 10.6689 19ZM22.0918 17.6396V19H17.0947V17.6396H22.0918ZM17.5732 9.04688V19H15.8574V9.04688H17.5732ZM30.9033 13.75V14.2969C30.9033 15.0488 30.8053 15.7233 30.6094 16.3203C30.4134 16.9173 30.1331 17.4255 29.7686 17.8447C29.4085 18.264 28.9756 18.5853 28.4697 18.8086C27.9639 19.0273 27.4033 19.1367 26.7881 19.1367C26.1774 19.1367 25.6191 19.0273 25.1133 18.8086C24.612 18.5853 24.1768 18.264 23.8076 17.8447C23.4385 17.4255 23.1514 16.9173 22.9463 16.3203C22.7458 15.7233 22.6455 15.0488 22.6455 14.2969V13.75C22.6455 12.998 22.7458 12.3258 22.9463 11.7334C23.1468 11.1364 23.4294 10.6283 23.7939 10.209C24.1631 9.78516 24.5983 9.46387 25.0996 9.24512C25.6055 9.02181 26.1637 8.91016 26.7744 8.91016C27.3896 8.91016 27.9502 9.02181 28.4561 9.24512C28.9619 9.46387 29.3971 9.78516 29.7617 10.209C30.1263 10.6283 30.4066 11.1364 30.6025 11.7334C30.8031 12.3258 30.9033 12.998 30.9033 13.75ZM29.1875 14.2969V13.7363C29.1875 13.1803 29.1328 12.6904 29.0234 12.2666C28.9186 11.8382 28.7614 11.4805 28.5518 11.1934C28.3467 10.9017 28.0938 10.6829 27.793 10.5371C27.4922 10.3867 27.1527 10.3115 26.7744 10.3115C26.3962 10.3115 26.0589 10.3867 25.7627 10.5371C25.4665 10.6829 25.2135 10.9017 25.0039 11.1934C24.7988 11.4805 24.6416 11.8382 24.5322 12.2666C24.4229 12.6904 24.3682 13.1803 24.3682 13.7363V14.2969C24.3682 14.8529 24.4229 15.3451 24.5322 15.7734C24.6416 16.2018 24.8011 16.5641 25.0107 16.8604C25.2249 17.152 25.4801 17.373 25.7764 17.5234C26.0726 17.6693 26.4098 17.7422 26.7881 17.7422C27.1709 17.7422 27.5104 17.6693 27.8066 17.5234C28.1029 17.373 28.3535 17.152 28.5586 16.8604C28.7637 16.5641 28.9186 16.2018 29.0234 15.7734C29.1328 15.3451 29.1875 14.8529 29.1875 14.2969ZM38.498 15.7598H40.207C40.1523 16.4115 39.9701 16.9925 39.6602 17.5029C39.3503 18.0088 38.915 18.4076 38.3545 18.6992C37.7939 18.9909 37.1126 19.1367 36.3105 19.1367C35.6953 19.1367 35.1416 19.0273 34.6494 18.8086C34.1572 18.5853 33.7357 18.2708 33.3848 17.8652C33.0339 17.4551 32.765 16.9606 32.5781 16.3818C32.3958 15.8031 32.3047 15.1559 32.3047 14.4404V13.6133C32.3047 12.8978 32.3981 12.2507 32.585 11.6719C32.7764 11.0931 33.0498 10.5986 33.4053 10.1885C33.7607 9.77376 34.1868 9.45703 34.6836 9.23828C35.1849 9.01953 35.7477 8.91016 36.3721 8.91016C37.165 8.91016 37.835 9.05599 38.3818 9.34766C38.9287 9.63932 39.3525 10.0426 39.6533 10.5576C39.9587 11.0726 40.1455 11.6628 40.2139 12.3281H38.5049C38.4593 11.8997 38.359 11.5329 38.2041 11.2275C38.0537 10.9222 37.8304 10.6898 37.5342 10.5303C37.238 10.3662 36.8506 10.2842 36.3721 10.2842C35.9801 10.2842 35.6383 10.3571 35.3467 10.5029C35.055 10.6488 34.8112 10.863 34.6152 11.1455C34.4193 11.4281 34.2712 11.7767 34.1709 12.1914C34.0752 12.6016 34.0273 13.071 34.0273 13.5996V14.4404C34.0273 14.9417 34.0706 15.3975 34.1572 15.8076C34.2484 16.2132 34.3851 16.5618 34.5674 16.8535C34.7542 17.1452 34.9912 17.3708 35.2783 17.5303C35.5654 17.6898 35.9095 17.7695 36.3105 17.7695C36.7982 17.7695 37.1924 17.6921 37.4932 17.5371C37.7985 17.3822 38.0286 17.1566 38.1836 16.8604C38.3431 16.5596 38.4479 16.1927 38.498 15.7598ZM43.4814 9.04688V19H41.7656V9.04688H43.4814ZM49.4629 9.04688L45.4297 13.8389L43.1328 16.2725L42.832 14.5703L44.4727 12.5469L47.3711 9.04688H49.4629ZM47.6172 19L44.3428 14.2832L45.5254 13.1143L49.6543 19H47.6172Z" fill="white"/>
</svg>
