<svg width="40" height="41" viewBox="0 0 40 41" fill="none" xmlns="http://www.w3.org/2000/svg">
<rect y="0.5" width="40" height="40" rx="20" fill="#337FF1" fill-opacity="0.06"/>
<path d="M27.9781 15.873L20.0008 20.4997L12.0234 15.873" stroke="#9FC5FE" stroke-linecap="round" stroke-linejoin="round"/>
<path d="M20 29.7507V20.5" stroke="#9FC5FE" stroke-linecap="round" stroke-linejoin="round"/>
<path d="M18.663 11.609L12.9963 14.8957C12.1737 15.373 11.667 16.2517 11.667 17.2024V23.797C11.667 24.7477 12.1737 25.6264 12.9963 26.1037L18.663 29.3904C19.491 29.8704 20.511 29.8704 21.339 29.3904L27.0057 26.1037C27.8283 25.6264 28.335 24.7477 28.335 23.797V17.2024C28.335 16.2517 27.8283 15.373 27.0057 14.8957L21.339 11.609C20.511 11.129 19.491 11.129 18.663 11.609Z" stroke="#9FC5FE" stroke-linecap="round" stroke-linejoin="round"/>
</svg>
