<svg width="1334" height="755" viewBox="0 0 1334 755" fill="none" xmlns="http://www.w3.org/2000/svg">
<rect width="1334" height="755" fill="white"/>
<rect x="1036" y="282" width="52" height="44" fill="white" stroke="#9377FF" stroke-width="2"/>
<path d="M1059.77 298.57L1056.67 308H1054.18L1058.41 296.625H1059.99L1059.77 298.57ZM1062.34 308L1059.23 298.57L1058.98 296.625H1060.59L1064.84 308H1062.34ZM1062.2 303.766V305.602H1056.19V303.766H1062.2Z" fill="#9377FF"/>
<path d="M1030 281C1030 276.582 1033.58 273 1038 273H1080V289H1038C1033.58 289 1030 285.418 1030 281Z" fill="white" stroke="#9377FF" stroke-width="2"/>
<path d="M1030 326C1030 321.582 1033.58 318 1038 318H1080V334H1038C1033.58 334 1030 330.418 1030 326Z" fill="white" stroke="#9377FF" stroke-width="2"/>
<circle cx="1081" cy="281" r="8" fill="white" stroke="#9377FF" stroke-width="2"/>
<circle cx="1081" cy="281" r="4" fill="white" stroke="#9377FF" stroke-width="2"/>
<circle cx="1081" cy="326" r="8" fill="white" stroke="#9377FF" stroke-width="2"/>
<circle cx="1081" cy="326" r="4" fill="white" stroke="#9377FF" stroke-width="2"/>
<rect x="1036" y="432" width="52" height="44" fill="white" stroke="#9377FF" stroke-width="2"/>
<path d="M1059.86 453.008H1056.94L1056.92 451.398H1059.38C1059.81 451.398 1060.16 451.344 1060.44 451.234C1060.71 451.12 1060.92 450.956 1061.05 450.742C1061.2 450.523 1061.27 450.258 1061.27 449.945C1061.27 449.591 1061.2 449.305 1061.06 449.086C1060.93 448.867 1060.73 448.708 1060.45 448.609C1060.17 448.51 1059.81 448.461 1059.38 448.461H1057.75V458H1055.41V446.625H1059.38C1060.04 446.625 1060.63 446.688 1061.15 446.812C1061.67 446.938 1062.12 447.128 1062.48 447.383C1062.85 447.638 1063.13 447.961 1063.32 448.352C1063.51 448.737 1063.61 449.195 1063.61 449.727C1063.61 450.195 1063.5 450.628 1063.29 451.023C1063.08 451.419 1062.75 451.742 1062.3 451.992C1061.85 452.242 1061.26 452.38 1060.54 452.406L1059.86 453.008ZM1059.76 458H1056.3L1057.21 456.172H1059.76C1060.17 456.172 1060.51 456.107 1060.77 455.977C1061.03 455.841 1061.22 455.659 1061.34 455.43C1061.47 455.201 1061.53 454.938 1061.53 454.641C1061.53 454.307 1061.47 454.018 1061.36 453.773C1061.25 453.529 1061.07 453.341 1060.83 453.211C1060.58 453.076 1060.26 453.008 1059.86 453.008H1057.6L1057.62 451.398H1060.43L1060.97 452.031C1061.66 452.021 1062.22 452.143 1062.64 452.398C1063.07 452.648 1063.38 452.974 1063.57 453.375C1063.77 453.776 1063.87 454.206 1063.87 454.664C1063.87 455.393 1063.71 456.008 1063.39 456.508C1063.07 457.003 1062.61 457.375 1061.99 457.625C1061.38 457.875 1060.64 458 1059.76 458Z" fill="#9377FF"/>
<path d="M1030 431C1030 426.582 1033.58 423 1038 423H1080V439H1038C1033.58 439 1030 435.418 1030 431Z" fill="white" stroke="#9377FF" stroke-width="2"/>
<path d="M1030 476C1030 471.582 1033.58 468 1038 468H1080V484H1038C1033.58 484 1030 480.418 1030 476Z" fill="white" stroke="#9377FF" stroke-width="2"/>
<circle cx="1081" cy="431" r="8" fill="white" stroke="#9377FF" stroke-width="2"/>
<circle cx="1081" cy="431" r="4" fill="white" stroke="#9377FF" stroke-width="2"/>
<circle cx="1081" cy="476" r="8" fill="white" stroke="#9377FF" stroke-width="2"/>
<circle cx="1081" cy="476" r="4" fill="white" stroke="#9377FF" stroke-width="2"/>
<path d="M470.421 222.323L498 206.159L525.579 222.323V254.677L498 270.841L470.421 254.677V222.323Z" fill="white" stroke="#9377FF" stroke-width="2"/>
<path d="M526 222L498 239L470 222" stroke="#9377FF" stroke-width="2"/>
<path d="M526 234L498 251L470 234" stroke="#9377FF" stroke-width="2"/>
<path d="M526 245L498 262L470 245" stroke="#9377FF" stroke-width="2"/>
<path d="M498 239L498 271" stroke="#9377FF"/>
<path d="M498 239L526 222V254.5L498 271.5V239Z" fill="#9377FF"/>
<path d="M493.438 221.312V223.281C493.438 224.135 493.346 224.872 493.164 225.492C492.982 226.107 492.719 226.612 492.375 227.008C492.036 227.398 491.633 227.688 491.164 227.875C490.695 228.062 490.174 228.156 489.602 228.156C489.143 228.156 488.716 228.099 488.32 227.984C487.924 227.865 487.568 227.68 487.25 227.43C486.938 227.18 486.667 226.865 486.438 226.484C486.214 226.099 486.042 225.641 485.922 225.109C485.802 224.578 485.742 223.969 485.742 223.281V221.312C485.742 220.458 485.833 219.727 486.016 219.117C486.203 218.503 486.466 218 486.805 217.609C487.148 217.219 487.555 216.932 488.023 216.75C488.492 216.562 489.013 216.469 489.586 216.469C490.044 216.469 490.469 216.529 490.859 216.648C491.255 216.763 491.612 216.943 491.93 217.188C492.247 217.432 492.518 217.747 492.742 218.133C492.966 218.513 493.138 218.969 493.258 219.5C493.378 220.026 493.438 220.63 493.438 221.312ZM491.18 223.578V221.008C491.18 220.596 491.156 220.237 491.109 219.93C491.068 219.622 491.003 219.362 490.914 219.148C490.826 218.93 490.716 218.753 490.586 218.617C490.456 218.482 490.307 218.383 490.141 218.32C489.974 218.258 489.789 218.227 489.586 218.227C489.331 218.227 489.104 218.276 488.906 218.375C488.714 218.474 488.549 218.633 488.414 218.852C488.279 219.065 488.174 219.352 488.102 219.711C488.034 220.065 488 220.497 488 221.008V223.578C488 223.99 488.021 224.352 488.062 224.664C488.109 224.977 488.177 225.245 488.266 225.469C488.359 225.688 488.469 225.867 488.594 226.008C488.724 226.143 488.872 226.242 489.039 226.305C489.211 226.367 489.398 226.398 489.602 226.398C489.852 226.398 490.073 226.349 490.266 226.25C490.464 226.146 490.63 225.984 490.766 225.766C490.906 225.542 491.01 225.25 491.078 224.891C491.146 224.531 491.18 224.094 491.18 223.578ZM496.571 219.547L497.969 222.117L499.407 219.547H501.805L499.415 223.68L501.915 228H499.509L497.985 225.281L496.462 228H494.055L496.555 223.68L494.165 219.547H496.571ZM510.283 226.242V228H502.501V226.5L506.181 222.555C506.551 222.143 506.843 221.781 507.056 221.469C507.27 221.151 507.423 220.867 507.517 220.617C507.616 220.362 507.665 220.12 507.665 219.891C507.665 219.547 507.608 219.253 507.494 219.008C507.379 218.758 507.21 218.565 506.986 218.43C506.767 218.294 506.496 218.227 506.173 218.227C505.83 218.227 505.533 218.31 505.283 218.477C505.038 218.643 504.85 218.875 504.72 219.172C504.595 219.469 504.533 219.805 504.533 220.18H502.275C502.275 219.503 502.436 218.883 502.759 218.32C503.082 217.753 503.538 217.302 504.126 216.969C504.715 216.63 505.413 216.461 506.22 216.461C507.017 216.461 507.689 216.591 508.236 216.852C508.788 217.107 509.205 217.477 509.486 217.961C509.772 218.44 509.915 219.013 509.915 219.68C509.915 220.055 509.856 220.422 509.736 220.781C509.616 221.135 509.444 221.49 509.22 221.844C509.001 222.193 508.736 222.547 508.423 222.906C508.111 223.266 507.764 223.638 507.384 224.023L505.408 226.242H510.283Z" fill="#9377FF"/>
<path d="M526 234L498 251" stroke="white" stroke-width="2" stroke-linecap="round"/>
<path d="M526 245L498 262" stroke="white" stroke-width="2" stroke-linecap="round"/>
<circle cx="522.5" cy="229.5" r="1.5" fill="white"/>
<circle cx="493.5" cy="242.5" r="1.5" fill="#9377FF"/>
<circle cx="522.5" cy="242.5" r="1.5" fill="white"/>
<circle cx="493.5" cy="253.5" r="1.5" fill="#9377FF"/>
<circle cx="522.5" cy="253.5" r="1.5" fill="white"/>
<circle cx="493.5" cy="263.5" r="1.5" fill="#9377FF"/>
<path d="M470.421 424.323L498 408.159L525.579 424.323V456.677L498 472.841L470.421 456.677V424.323Z" fill="white" stroke="#9377FF" stroke-width="2"/>
<path d="M526 424L498 441L470 424" stroke="#9377FF" stroke-width="2"/>
<path d="M526 436L498 453L470 436" stroke="#9377FF" stroke-width="2"/>
<path d="M526 447L498 464L470 447" stroke="#9377FF" stroke-width="2"/>
<path d="M498 441L498 473" stroke="#9377FF"/>
<path d="M498 441L526 424V456.5L498 473.5V441Z" fill="#9377FF"/>
<path d="M493.438 423.312V425.281C493.438 426.135 493.346 426.872 493.164 427.492C492.982 428.107 492.719 428.612 492.375 429.008C492.036 429.398 491.633 429.688 491.164 429.875C490.695 430.062 490.174 430.156 489.602 430.156C489.143 430.156 488.716 430.099 488.32 429.984C487.924 429.865 487.568 429.68 487.25 429.43C486.938 429.18 486.667 428.865 486.438 428.484C486.214 428.099 486.042 427.641 485.922 427.109C485.802 426.578 485.742 425.969 485.742 425.281V423.312C485.742 422.458 485.833 421.727 486.016 421.117C486.203 420.503 486.466 420 486.805 419.609C487.148 419.219 487.555 418.932 488.023 418.75C488.492 418.562 489.013 418.469 489.586 418.469C490.044 418.469 490.469 418.529 490.859 418.648C491.255 418.763 491.612 418.943 491.93 419.188C492.247 419.432 492.518 419.747 492.742 420.133C492.966 420.513 493.138 420.969 493.258 421.5C493.378 422.026 493.438 422.63 493.438 423.312ZM491.18 425.578V423.008C491.18 422.596 491.156 422.237 491.109 421.93C491.068 421.622 491.003 421.362 490.914 421.148C490.826 420.93 490.716 420.753 490.586 420.617C490.456 420.482 490.307 420.383 490.141 420.32C489.974 420.258 489.789 420.227 489.586 420.227C489.331 420.227 489.104 420.276 488.906 420.375C488.714 420.474 488.549 420.633 488.414 420.852C488.279 421.065 488.174 421.352 488.102 421.711C488.034 422.065 488 422.497 488 423.008V425.578C488 425.99 488.021 426.352 488.062 426.664C488.109 426.977 488.177 427.245 488.266 427.469C488.359 427.688 488.469 427.867 488.594 428.008C488.724 428.143 488.872 428.242 489.039 428.305C489.211 428.367 489.398 428.398 489.602 428.398C489.852 428.398 490.073 428.349 490.266 428.25C490.464 428.146 490.63 427.984 490.766 427.766C490.906 427.542 491.01 427.25 491.078 426.891C491.146 426.531 491.18 426.094 491.18 425.578ZM496.571 421.547L497.969 424.117L499.407 421.547H501.805L499.415 425.68L501.915 430H499.509L497.985 427.281L496.462 430H494.055L496.555 425.68L494.165 421.547H496.571ZM510.283 428.242V430H502.501V428.5L506.181 424.555C506.551 424.143 506.843 423.781 507.056 423.469C507.27 423.151 507.423 422.867 507.517 422.617C507.616 422.362 507.665 422.12 507.665 421.891C507.665 421.547 507.608 421.253 507.494 421.008C507.379 420.758 507.21 420.565 506.986 420.43C506.767 420.294 506.496 420.227 506.173 420.227C505.83 420.227 505.533 420.31 505.283 420.477C505.038 420.643 504.85 420.875 504.72 421.172C504.595 421.469 504.533 421.805 504.533 422.18H502.275C502.275 421.503 502.436 420.883 502.759 420.32C503.082 419.753 503.538 419.302 504.126 418.969C504.715 418.63 505.413 418.461 506.22 418.461C507.017 418.461 507.689 418.591 508.236 418.852C508.788 419.107 509.205 419.477 509.486 419.961C509.772 420.44 509.915 421.013 509.915 421.68C509.915 422.055 509.856 422.422 509.736 422.781C509.616 423.135 509.444 423.49 509.22 423.844C509.001 424.193 508.736 424.547 508.423 424.906C508.111 425.266 507.764 425.638 507.384 426.023L505.408 428.242H510.283Z" fill="#9377FF"/>
<path d="M526 436L498 453" stroke="white" stroke-width="2" stroke-linecap="round"/>
<path d="M526 447L498 464" stroke="white" stroke-width="2" stroke-linecap="round"/>
<circle cx="522.5" cy="431.5" r="1.5" fill="white"/>
<circle cx="493.5" cy="444.5" r="1.5" fill="#9377FF"/>
<circle cx="522.5" cy="444.5" r="1.5" fill="white"/>
<circle cx="493.5" cy="455.5" r="1.5" fill="#9377FF"/>
<circle cx="522.5" cy="455.5" r="1.5" fill="white"/>
<circle cx="493.5" cy="465.5" r="1.5" fill="#9377FF"/>
<path d="M470.421 300.323L498 284.159L525.579 300.323V332.677L498 348.841L470.421 332.677V300.323Z" fill="white" stroke="#9377FF" stroke-width="2"/>
<path d="M526 300L498 317L470 300" stroke="#9377FF" stroke-width="2"/>
<path d="M526 312L498 329L470 312" stroke="#9377FF" stroke-width="2"/>
<path d="M526 323L498 340L470 323" stroke="#9377FF" stroke-width="2"/>
<path d="M498 317L498 349" stroke="#9377FF"/>
<path d="M498 317L526 300V332.5L498 349.5V317Z" fill="#9377FF"/>
<path d="M493.438 299.312V301.281C493.438 302.135 493.346 302.872 493.164 303.492C492.982 304.107 492.719 304.612 492.375 305.008C492.036 305.398 491.633 305.688 491.164 305.875C490.695 306.062 490.174 306.156 489.602 306.156C489.143 306.156 488.716 306.099 488.32 305.984C487.924 305.865 487.568 305.68 487.25 305.43C486.938 305.18 486.667 304.865 486.438 304.484C486.214 304.099 486.042 303.641 485.922 303.109C485.802 302.578 485.742 301.969 485.742 301.281V299.312C485.742 298.458 485.833 297.727 486.016 297.117C486.203 296.503 486.466 296 486.805 295.609C487.148 295.219 487.555 294.932 488.023 294.75C488.492 294.562 489.013 294.469 489.586 294.469C490.044 294.469 490.469 294.529 490.859 294.648C491.255 294.763 491.612 294.943 491.93 295.188C492.247 295.432 492.518 295.747 492.742 296.133C492.966 296.513 493.138 296.969 493.258 297.5C493.378 298.026 493.438 298.63 493.438 299.312ZM491.18 301.578V299.008C491.18 298.596 491.156 298.237 491.109 297.93C491.068 297.622 491.003 297.362 490.914 297.148C490.826 296.93 490.716 296.753 490.586 296.617C490.456 296.482 490.307 296.383 490.141 296.32C489.974 296.258 489.789 296.227 489.586 296.227C489.331 296.227 489.104 296.276 488.906 296.375C488.714 296.474 488.549 296.633 488.414 296.852C488.279 297.065 488.174 297.352 488.102 297.711C488.034 298.065 488 298.497 488 299.008V301.578C488 301.99 488.021 302.352 488.062 302.664C488.109 302.977 488.177 303.245 488.266 303.469C488.359 303.688 488.469 303.867 488.594 304.008C488.724 304.143 488.872 304.242 489.039 304.305C489.211 304.367 489.398 304.398 489.602 304.398C489.852 304.398 490.073 304.349 490.266 304.25C490.464 304.146 490.63 303.984 490.766 303.766C490.906 303.542 491.01 303.25 491.078 302.891C491.146 302.531 491.18 302.094 491.18 301.578ZM496.571 297.547L497.969 300.117L499.407 297.547H501.805L499.415 301.68L501.915 306H499.509L497.985 303.281L496.462 306H494.055L496.555 301.68L494.165 297.547H496.571ZM510.283 304.242V306H502.501V304.5L506.181 300.555C506.551 300.143 506.843 299.781 507.056 299.469C507.27 299.151 507.423 298.867 507.517 298.617C507.616 298.362 507.665 298.12 507.665 297.891C507.665 297.547 507.608 297.253 507.494 297.008C507.379 296.758 507.21 296.565 506.986 296.43C506.767 296.294 506.496 296.227 506.173 296.227C505.83 296.227 505.533 296.31 505.283 296.477C505.038 296.643 504.85 296.875 504.72 297.172C504.595 297.469 504.533 297.805 504.533 298.18H502.275C502.275 297.503 502.436 296.883 502.759 296.32C503.082 295.753 503.538 295.302 504.126 294.969C504.715 294.63 505.413 294.461 506.22 294.461C507.017 294.461 507.689 294.591 508.236 294.852C508.788 295.107 509.205 295.477 509.486 295.961C509.772 296.44 509.915 297.013 509.915 297.68C509.915 298.055 509.856 298.422 509.736 298.781C509.616 299.135 509.444 299.49 509.22 299.844C509.001 300.193 508.736 300.547 508.423 300.906C508.111 301.266 507.764 301.638 507.384 302.023L505.408 304.242H510.283Z" fill="#9377FF"/>
<path d="M526 312L498 329" stroke="white" stroke-width="2" stroke-linecap="round"/>
<path d="M526 323L498 340" stroke="white" stroke-width="2" stroke-linecap="round"/>
<circle cx="522.5" cy="307.5" r="1.5" fill="white"/>
<circle cx="493.5" cy="320.5" r="1.5" fill="#9377FF"/>
<circle cx="522.5" cy="320.5" r="1.5" fill="white"/>
<circle cx="493.5" cy="331.5" r="1.5" fill="#9377FF"/>
<circle cx="522.5" cy="331.5" r="1.5" fill="white"/>
<circle cx="493.5" cy="341.5" r="1.5" fill="#9377FF"/>
<path d="M255 378L741 378" stroke="#1A1A1A" stroke-width="2" style="mix-blend-mode:exclusion"/>
<path d="M470.421 502.323L498 486.159L525.579 502.323V534.677L498 550.841L470.421 534.677V502.323Z" fill="white" stroke="#9377FF" stroke-width="2"/>
<path d="M526 502L498 519L470 502" stroke="#9377FF" stroke-width="2"/>
<path d="M526 514L498 531L470 514" stroke="#9377FF" stroke-width="2"/>
<path d="M526 525L498 542L470 525" stroke="#9377FF" stroke-width="2"/>
<path d="M498 519L498 551" stroke="#9377FF"/>
<path d="M498 519L526 502V534.5L498 551.5V519Z" fill="#9377FF"/>
<path d="M493.438 501.312V503.281C493.438 504.135 493.346 504.872 493.164 505.492C492.982 506.107 492.719 506.612 492.375 507.008C492.036 507.398 491.633 507.688 491.164 507.875C490.695 508.062 490.174 508.156 489.602 508.156C489.143 508.156 488.716 508.099 488.32 507.984C487.924 507.865 487.568 507.68 487.25 507.43C486.938 507.18 486.667 506.865 486.438 506.484C486.214 506.099 486.042 505.641 485.922 505.109C485.802 504.578 485.742 503.969 485.742 503.281V501.312C485.742 500.458 485.833 499.727 486.016 499.117C486.203 498.503 486.466 498 486.805 497.609C487.148 497.219 487.555 496.932 488.023 496.75C488.492 496.562 489.013 496.469 489.586 496.469C490.044 496.469 490.469 496.529 490.859 496.648C491.255 496.763 491.612 496.943 491.93 497.188C492.247 497.432 492.518 497.747 492.742 498.133C492.966 498.513 493.138 498.969 493.258 499.5C493.378 500.026 493.438 500.63 493.438 501.312ZM491.18 503.578V501.008C491.18 500.596 491.156 500.237 491.109 499.93C491.068 499.622 491.003 499.362 490.914 499.148C490.826 498.93 490.716 498.753 490.586 498.617C490.456 498.482 490.307 498.383 490.141 498.32C489.974 498.258 489.789 498.227 489.586 498.227C489.331 498.227 489.104 498.276 488.906 498.375C488.714 498.474 488.549 498.633 488.414 498.852C488.279 499.065 488.174 499.352 488.102 499.711C488.034 500.065 488 500.497 488 501.008V503.578C488 503.99 488.021 504.352 488.062 504.664C488.109 504.977 488.177 505.245 488.266 505.469C488.359 505.688 488.469 505.867 488.594 506.008C488.724 506.143 488.872 506.242 489.039 506.305C489.211 506.367 489.398 506.398 489.602 506.398C489.852 506.398 490.073 506.349 490.266 506.25C490.464 506.146 490.63 505.984 490.766 505.766C490.906 505.542 491.01 505.25 491.078 504.891C491.146 504.531 491.18 504.094 491.18 503.578ZM496.571 499.547L497.969 502.117L499.407 499.547H501.805L499.415 503.68L501.915 508H499.509L497.985 505.281L496.462 508H494.055L496.555 503.68L494.165 499.547H496.571ZM510.283 506.242V508H502.501V506.5L506.181 502.555C506.551 502.143 506.843 501.781 507.056 501.469C507.27 501.151 507.423 500.867 507.517 500.617C507.616 500.362 507.665 500.12 507.665 499.891C507.665 499.547 507.608 499.253 507.494 499.008C507.379 498.758 507.21 498.565 506.986 498.43C506.767 498.294 506.496 498.227 506.173 498.227C505.83 498.227 505.533 498.31 505.283 498.477C505.038 498.643 504.85 498.875 504.72 499.172C504.595 499.469 504.533 499.805 504.533 500.18H502.275C502.275 499.503 502.436 498.883 502.759 498.32C503.082 497.753 503.538 497.302 504.126 496.969C504.715 496.63 505.413 496.461 506.22 496.461C507.017 496.461 507.689 496.591 508.236 496.852C508.788 497.107 509.205 497.477 509.486 497.961C509.772 498.44 509.915 499.013 509.915 499.68C509.915 500.055 509.856 500.422 509.736 500.781C509.616 501.135 509.444 501.49 509.22 501.844C509.001 502.193 508.736 502.547 508.423 502.906C508.111 503.266 507.764 503.638 507.384 504.023L505.408 506.242H510.283Z" fill="#9377FF"/>
<path d="M526 514L498 531" stroke="white" stroke-width="2" stroke-linecap="round"/>
<path d="M526 525L498 542" stroke="white" stroke-width="2" stroke-linecap="round"/>
<circle cx="522.5" cy="509.5" r="1.5" fill="white"/>
<circle cx="493.5" cy="522.5" r="1.5" fill="#9377FF"/>
<circle cx="522.5" cy="522.5" r="1.5" fill="white"/>
<circle cx="493.5" cy="533.5" r="1.5" fill="#9377FF"/>
<circle cx="522.5" cy="533.5" r="1.5" fill="white"/>
<circle cx="493.5" cy="543.5" r="1.5" fill="#9377FF"/>
<path d="M749.421 362.323L777 346.159L804.579 362.323V394.677L777 410.841L749.421 394.677V362.323Z" fill="white" stroke="#FFA077" stroke-width="2"/>
<path d="M805 362L777 379L749 362" stroke="#FFA077" stroke-width="2"/>
<path d="M805 374L777 391L749 374" stroke="#FFA077" stroke-width="2"/>
<path d="M805 385L777 402L749 385" stroke="#FFA077" stroke-width="2"/>
<path d="M777 379L777 411" stroke="#FFA077"/>
<path d="M777 379L805 362V394.5L777 411.5V379Z" fill="#FFA077"/>
<path d="M772.438 361.312V363.281C772.438 364.135 772.346 364.872 772.164 365.492C771.982 366.107 771.719 366.612 771.375 367.008C771.036 367.398 770.633 367.688 770.164 367.875C769.695 368.062 769.174 368.156 768.602 368.156C768.143 368.156 767.716 368.099 767.32 367.984C766.924 367.865 766.568 367.68 766.25 367.43C765.938 367.18 765.667 366.865 765.438 366.484C765.214 366.099 765.042 365.641 764.922 365.109C764.802 364.578 764.742 363.969 764.742 363.281V361.312C764.742 360.458 764.833 359.727 765.016 359.117C765.203 358.503 765.466 358 765.805 357.609C766.148 357.219 766.555 356.932 767.023 356.75C767.492 356.562 768.013 356.469 768.586 356.469C769.044 356.469 769.469 356.529 769.859 356.648C770.255 356.763 770.612 356.943 770.93 357.188C771.247 357.432 771.518 357.747 771.742 358.133C771.966 358.513 772.138 358.969 772.258 359.5C772.378 360.026 772.438 360.63 772.438 361.312ZM770.18 363.578V361.008C770.18 360.596 770.156 360.237 770.109 359.93C770.068 359.622 770.003 359.362 769.914 359.148C769.826 358.93 769.716 358.753 769.586 358.617C769.456 358.482 769.307 358.383 769.141 358.32C768.974 358.258 768.789 358.227 768.586 358.227C768.331 358.227 768.104 358.276 767.906 358.375C767.714 358.474 767.549 358.633 767.414 358.852C767.279 359.065 767.174 359.352 767.102 359.711C767.034 360.065 767 360.497 767 361.008V363.578C767 363.99 767.021 364.352 767.062 364.664C767.109 364.977 767.177 365.245 767.266 365.469C767.359 365.688 767.469 365.867 767.594 366.008C767.724 366.143 767.872 366.242 768.039 366.305C768.211 366.367 768.398 366.398 768.602 366.398C768.852 366.398 769.073 366.349 769.266 366.25C769.464 366.146 769.63 365.984 769.766 365.766C769.906 365.542 770.01 365.25 770.078 364.891C770.146 364.531 770.18 364.094 770.18 363.578ZM775.571 359.547L776.969 362.117L778.407 359.547H780.805L778.415 363.68L780.915 368H778.509L776.985 365.281L775.462 368H773.055L775.555 363.68L773.165 359.547H775.571ZM783.619 362.82L781.822 362.391L782.47 356.625H788.861V358.445H784.322L784.04 360.969C784.191 360.88 784.421 360.786 784.728 360.688C785.035 360.583 785.379 360.531 785.759 360.531C786.311 360.531 786.801 360.617 787.228 360.789C787.655 360.961 788.017 361.211 788.314 361.539C788.616 361.867 788.845 362.268 789.001 362.742C789.158 363.216 789.236 363.753 789.236 364.352C789.236 364.857 789.158 365.339 789.001 365.797C788.845 366.25 788.608 366.656 788.29 367.016C787.973 367.37 787.574 367.648 787.095 367.852C786.616 368.055 786.048 368.156 785.392 368.156C784.902 368.156 784.428 368.083 783.97 367.938C783.517 367.792 783.108 367.576 782.744 367.289C782.384 367.003 782.095 366.656 781.876 366.25C781.663 365.839 781.551 365.37 781.54 364.844H783.775C783.806 365.167 783.889 365.445 784.025 365.68C784.165 365.909 784.35 366.086 784.58 366.211C784.809 366.336 785.077 366.398 785.384 366.398C785.671 366.398 785.915 366.344 786.119 366.234C786.322 366.125 786.486 365.974 786.611 365.781C786.736 365.583 786.827 365.354 786.884 365.094C786.947 364.828 786.978 364.542 786.978 364.234C786.978 363.927 786.941 363.648 786.869 363.398C786.796 363.148 786.684 362.932 786.533 362.75C786.382 362.568 786.189 362.427 785.955 362.328C785.725 362.229 785.457 362.18 785.15 362.18C784.733 362.18 784.41 362.245 784.181 362.375C783.957 362.505 783.77 362.654 783.619 362.82Z" fill="#FFA077"/>
<path d="M805 374L777 391" stroke="white" stroke-width="2" stroke-linecap="round"/>
<path d="M805 385L777 402" stroke="white" stroke-width="2" stroke-linecap="round"/>
<circle cx="801.5" cy="369.5" r="1.5" fill="white"/>
<circle cx="772.5" cy="382.5" r="1.5" fill="#FFA077"/>
<circle cx="801.5" cy="382.5" r="1.5" fill="white"/>
<circle cx="772.5" cy="393.5" r="1.5" fill="#FFA077"/>
<circle cx="801.5" cy="393.5" r="1.5" fill="white"/>
<circle cx="772.5" cy="403.5" r="1.5" fill="#FFA077"/>
<path d="M214.438 400.312V402.281C214.438 403.135 214.346 403.872 214.164 404.492C213.982 405.107 213.719 405.612 213.375 406.008C213.036 406.398 212.633 406.688 212.164 406.875C211.695 407.062 211.174 407.156 210.602 407.156C210.143 407.156 209.716 407.099 209.32 406.984C208.924 406.865 208.568 406.68 208.25 406.43C207.938 406.18 207.667 405.865 207.438 405.484C207.214 405.099 207.042 404.641 206.922 404.109C206.802 403.578 206.742 402.969 206.742 402.281V400.312C206.742 399.458 206.833 398.727 207.016 398.117C207.203 397.503 207.466 397 207.805 396.609C208.148 396.219 208.555 395.932 209.023 395.75C209.492 395.562 210.013 395.469 210.586 395.469C211.044 395.469 211.469 395.529 211.859 395.648C212.255 395.763 212.612 395.943 212.93 396.188C213.247 396.432 213.518 396.747 213.742 397.133C213.966 397.513 214.138 397.969 214.258 398.5C214.378 399.026 214.438 399.63 214.438 400.312ZM212.18 402.578V400.008C212.18 399.596 212.156 399.237 212.109 398.93C212.068 398.622 212.003 398.362 211.914 398.148C211.826 397.93 211.716 397.753 211.586 397.617C211.456 397.482 211.307 397.383 211.141 397.32C210.974 397.258 210.789 397.227 210.586 397.227C210.331 397.227 210.104 397.276 209.906 397.375C209.714 397.474 209.549 397.633 209.414 397.852C209.279 398.065 209.174 398.352 209.102 398.711C209.034 399.065 209 399.497 209 400.008V402.578C209 402.99 209.021 403.352 209.062 403.664C209.109 403.977 209.177 404.245 209.266 404.469C209.359 404.688 209.469 404.867 209.594 405.008C209.724 405.143 209.872 405.242 210.039 405.305C210.211 405.367 210.398 405.398 210.602 405.398C210.852 405.398 211.073 405.349 211.266 405.25C211.464 405.146 211.63 404.984 211.766 404.766C211.906 404.542 212.01 404.25 212.078 403.891C212.146 403.531 212.18 403.094 212.18 402.578ZM217.571 398.547L218.969 401.117L220.407 398.547H222.805L220.415 402.68L222.915 407H220.509L218.985 404.281L217.462 407H215.055L217.555 402.68L215.165 398.547H217.571ZM228.158 405.094V401.328C228.158 401.057 228.113 400.826 228.025 400.633C227.936 400.435 227.798 400.281 227.611 400.172C227.428 400.062 227.191 400.008 226.9 400.008C226.65 400.008 226.434 400.052 226.251 400.141C226.069 400.224 225.928 400.346 225.83 400.508C225.731 400.664 225.681 400.849 225.681 401.062H223.431C223.431 400.703 223.514 400.362 223.681 400.039C223.848 399.716 224.09 399.432 224.408 399.188C224.725 398.938 225.103 398.742 225.54 398.602C225.983 398.461 226.478 398.391 227.025 398.391C227.681 398.391 228.264 398.5 228.775 398.719C229.285 398.938 229.686 399.266 229.978 399.703C230.275 400.141 230.423 400.688 230.423 401.344V404.961C230.423 405.424 230.452 405.805 230.509 406.102C230.566 406.393 230.65 406.648 230.759 406.867V407H228.486C228.376 406.771 228.293 406.484 228.236 406.141C228.184 405.792 228.158 405.443 228.158 405.094ZM228.455 401.852L228.47 403.125H227.212C226.915 403.125 226.658 403.159 226.439 403.227C226.22 403.294 226.04 403.391 225.9 403.516C225.759 403.635 225.655 403.776 225.587 403.938C225.525 404.099 225.494 404.276 225.494 404.469C225.494 404.661 225.538 404.836 225.626 404.992C225.715 405.143 225.843 405.263 226.009 405.352C226.176 405.435 226.371 405.477 226.595 405.477C226.934 405.477 227.228 405.409 227.478 405.273C227.728 405.138 227.921 404.971 228.056 404.773C228.197 404.576 228.27 404.388 228.275 404.211L228.869 405.164C228.785 405.378 228.671 405.599 228.525 405.828C228.384 406.057 228.205 406.273 227.986 406.477C227.767 406.674 227.504 406.839 227.197 406.969C226.889 407.094 226.525 407.156 226.103 407.156C225.566 407.156 225.08 407.049 224.642 406.836C224.21 406.617 223.866 406.318 223.611 405.938C223.361 405.552 223.236 405.115 223.236 404.625C223.236 404.182 223.319 403.789 223.486 403.445C223.652 403.102 223.897 402.812 224.22 402.578C224.548 402.339 224.957 402.159 225.447 402.039C225.936 401.914 226.504 401.852 227.15 401.852H228.455Z" fill="#9377FF"/>
<mask id="mask0_73_30" style="mask-type:alpha" maskUnits="userSpaceOnUse" x="197" y="348" width="44" height="44">
<circle cx="219" cy="370" r="22" fill="white"/>
</mask>
<g mask="url(#mask0_73_30)">
<circle cx="204.203" cy="366" r="4" fill="#9377FF"/>
<path fill-rule="evenodd" clip-rule="evenodd" d="M193 380.622C194.309 375.659 198.829 372 204.203 372C209.577 372 214.096 375.659 215.405 380.622C212.57 383.549 208.599 385.368 204.203 385.368C199.806 385.368 195.835 383.549 193 380.622Z" fill="#9377FF"/>
<circle cx="234.203" cy="366" r="4" fill="#9377FF"/>
<path fill-rule="evenodd" clip-rule="evenodd" d="M223 380.622C224.309 375.659 228.829 372 234.203 372C239.577 372 244.096 375.659 245.405 380.622C242.57 383.549 238.599 385.368 234.203 385.368C229.806 385.368 225.835 383.549 223 380.622Z" fill="#9377FF"/>
<circle cx="219.203" cy="362" r="5.5" fill="#9377FF" stroke="white"/>
<mask id="path-100-inside-1_73_30" fill="white">
<path fill-rule="evenodd" clip-rule="evenodd" d="M202.459 385.041C203.356 376.587 210.51 370 219.203 370C227.895 370 235.049 376.587 235.946 385.041C231.801 389.581 225.835 392.429 219.203 392.429C212.571 392.429 206.604 389.581 202.459 385.041Z"/>
</mask>
<path fill-rule="evenodd" clip-rule="evenodd" d="M202.459 385.041C203.356 376.587 210.51 370 219.203 370C227.895 370 235.049 376.587 235.946 385.041C231.801 389.581 225.835 392.429 219.203 392.429C212.571 392.429 206.604 389.581 202.459 385.041Z" fill="#9377FF"/>
<path d="M202.459 385.041L201.465 384.936L201.417 385.383L201.721 385.715L202.459 385.041ZM235.946 385.041L236.685 385.716L236.988 385.383L236.94 384.936L235.946 385.041ZM203.454 385.147C204.297 377.195 211.027 371 219.203 371V369C209.993 369 202.415 375.978 201.465 384.936L203.454 385.147ZM219.203 371C227.378 371 234.108 377.195 234.952 385.147L236.94 384.936C235.99 375.978 228.412 369 219.203 369V371ZM235.208 384.367C231.244 388.708 225.542 391.429 219.203 391.429V393.429C226.127 393.429 232.358 390.454 236.685 385.716L235.208 384.367ZM219.203 391.429C212.864 391.429 207.161 388.708 203.198 384.367L201.721 385.715C206.047 390.454 212.278 393.429 219.203 393.429V391.429Z" fill="white" mask="url(#path-100-inside-1_73_30)"/>
</g>
<circle cx="219" cy="369" r="22.25" stroke="#9377FF" stroke-width="1.5"/>
<path d="M817 378H979.5C993.307 378 1004.5 366.807 1004.5 353V320.5C1004.5 312.492 1010.99 306 1019 306V306" stroke="#1A1A1A" stroke-width="2" style="mix-blend-mode:exclusion"/>
<path d="M216 340V332C216 318.193 227.193 307 241 307H457" stroke="#E2E2E2" stroke-width="2"/>
<path d="M216 340V256C216 242.193 227.193 231 241 231H457" stroke="#E2E2E2" stroke-width="2"/>
<path d="M780 340V332C780 318.193 768.807 307 755 307H539" stroke="#1A1A1A" stroke-width="2" style="mix-blend-mode:exclusion"/>
<path d="M216 416V424C216 437.807 227.193 449 241 449H457" stroke="#E2E2E2" stroke-width="2"/>
<path d="M216 416V500C216 513.807 227.193 525 241 525H457" stroke="#E2E2E2" stroke-width="2"/>
<path d="M780 416V424C780 437.807 768.807 449 755 449H539" stroke="#1A1A1A" stroke-width="2" style="mix-blend-mode:exclusion"/>
<path d="M780 416V500C780 513.807 768.807 525 755 525H539" stroke="#1A1A1A" stroke-width="2" style="mix-blend-mode:exclusion"/>
<path d="M817 378H979.5C993.307 378 1004.5 389.193 1004.5 403V435.5C1004.5 443.508 1010.99 450 1019 450V450" stroke="#1A1A1A" stroke-width="2" style="mix-blend-mode:exclusion"/>
<path d="M780 340V256C780 242.193 768.807 231 755 231H539" stroke="#1A1A1A" stroke-width="2" style="mix-blend-mode:exclusion"/>
</svg>
