<svg width="109" height="105" viewBox="0 0 109 105" fill="none" xmlns="http://www.w3.org/2000/svg">
<g filter="url(#filter0_d_113_252)">
<rect x="7" y="7" width="94.4344" height="91" rx="12" fill="#090A0F" shape-rendering="crispEdges"/>
<rect x="6.5" y="6.5" width="95.4344" height="92" rx="12.5" stroke="#24F6B7" shape-rendering="crispEdges"/>
<rect x="11.5" y="11.5" width="85.4344" height="82" rx="7.5" stroke="white" stroke-opacity="0.4"/>
<path d="M46.25 69.9351H45.75C45.3358 69.9351 45 70.2708 45 70.6851V71.1851C45 71.5993 45.3358 71.9351 45.75 71.9351H46.25C46.6642 71.9351 47 71.5993 47 71.1851V70.6851C47 70.2708 46.6642 69.9351 46.25 69.9351Z" fill="#FFD875"/>
<path d="M37.25 69.9351H36.75C36.3358 69.9351 36 70.2708 36 70.6851V71.1851C36 71.5993 36.3358 71.9351 36.75 71.9351H37.25C37.6642 71.9351 38 71.5993 38 71.1851V70.6851C38 70.2708 37.6642 69.9351 37.25 69.9351Z" fill="#FFD875"/>
<path d="M55.25 69.9351H54.75C54.3358 69.9351 54 70.2708 54 70.6851V71.1851C54 71.5993 54.3358 71.9351 54.75 71.9351H55.25C55.6642 71.9351 56 71.5993 56 71.1851V70.6851C56 70.2708 55.6642 69.9351 55.25 69.9351Z" fill="#FFD875"/>
<path d="M64.25 69.9351H63.75C63.3358 69.9351 63 70.2708 63 70.6851V71.1851C63 71.5993 63.3358 71.9351 63.75 71.9351H64.25C64.6642 71.9351 65 71.5993 65 71.1851V70.6851C65 70.2708 64.6642 69.9351 64.25 69.9351Z" fill="#FFD875"/>
<path d="M50.25 66.4351H49.75C49.3358 66.4351 49 66.7708 49 67.1851V67.6851C49 68.0993 49.3358 68.4351 49.75 68.4351H50.25C50.6642 68.4351 51 68.0993 51 67.6851V67.1851C51 66.7708 50.6642 66.4351 50.25 66.4351Z" fill="#FFD875"/>
<path d="M41.25 66.4351H40.75C40.3358 66.4351 40 66.7708 40 67.1851V67.6851C40 68.0993 40.3358 68.4351 40.75 68.4351H41.25C41.6642 68.4351 42 68.0993 42 67.6851V67.1851C42 66.7708 41.6642 66.4351 41.25 66.4351Z" fill="#FFD875"/>
<path d="M59.25 66.4351H58.75C58.3358 66.4351 58 66.7708 58 67.1851V67.6851C58 68.0993 58.3358 68.4351 58.75 68.4351H59.25C59.6642 68.4351 60 68.0993 60 67.6851V67.1851C60 66.7708 59.6642 66.4351 59.25 66.4351Z" fill="#FFD875"/>
<path d="M68.25 66.4351H67.75C67.3358 66.4351 67 66.7708 67 67.1851V67.6851C67 68.0993 67.3358 68.4351 67.75 68.4351H68.25C68.6642 68.4351 69 68.0993 69 67.6851V67.1851C69 66.7708 68.6642 66.4351 68.25 66.4351Z" fill="#FFD875"/>
<path d="M73.25 69.9351H72.75C72.3358 69.9351 72 70.2708 72 70.6851V71.1851C72 71.5993 72.3358 71.9351 72.75 71.9351H73.25C73.6642 71.9351 74 71.5993 74 71.1851V70.6851C74 70.2708 73.6642 69.9351 73.25 69.9351Z" fill="#FFD875"/>
<path d="M75.8033 52.0011H32.6311C29.5211 52.0011 27 54.0741 27 56.6313V73.9347C27 76.4919 29.5211 78.5649 32.6311 78.5649H75.8033C78.9132 78.5649 81.4344 76.4919 81.4344 73.9347V56.6313C81.4344 54.0741 78.9132 52.0011 75.8033 52.0011Z" stroke="#FBFF42" stroke-width="1.5" stroke-linecap="round" stroke-linejoin="round"/>
<path d="M27.2083 55.4351L35.5194 31.4009C36.5451 28.4352 39.4261 26.4351 42.6767 26.4351H65.7398C68.9866 26.4351 71.8714 28.4352 72.8971 31.4009L81.2083 55.4351" stroke="#FBFF42" stroke-width="1.5" stroke-linecap="round" stroke-linejoin="round"/>
<path d="M36.3853 59.7172H46.709" stroke="#FBFF42" stroke-width="1.5" stroke-linecap="round" stroke-linejoin="round"/>
<text fill="white" xml:space="preserve" style="white-space: pre" font-family="Area Variable" font-size="14" letter-spacing="0em"><tspan x="41.2172" y="43.548">0x5</tspan></text>
</g>
<defs>
<filter id="filter0_d_113_252" x="0" y="0" width="108.434" height="105" filterUnits="userSpaceOnUse" color-interpolation-filters="sRGB">
<feFlood flood-opacity="0" result="BackgroundImageFix"/>
<feColorMatrix in="SourceAlpha" type="matrix" values="0 0 0 0 0 0 0 0 0 0 0 0 0 0 0 0 0 0 127 0" result="hardAlpha"/>
<feOffset/>
<feGaussianBlur stdDeviation="3"/>
<feComposite in2="hardAlpha" operator="out"/>
<feColorMatrix type="matrix" values="0 0 0 0 0.141176 0 0 0 0 0.964706 0 0 0 0 0.717647 0 0 0 0.4 0"/>
<feBlend mode="normal" in2="BackgroundImageFix" result="effect1_dropShadow_113_252"/>
<feBlend mode="normal" in="SourceGraphic" in2="effect1_dropShadow_113_252" result="shape"/>
</filter>
</defs>
</svg>
