<svg fill="none" height="549" viewBox="0 0 1100 549" width="1100" xmlns="http://www.w3.org/2000/svg" xmlns:xlink="http://www.w3.org/1999/xlink"><filter id="a" color-interpolation-filters="sRGB" filterUnits="userSpaceOnUse" height="105" width="90" x="89.5" y="159"><feFlood flood-opacity="0" result="BackgroundImageFix"/><feColorMatrix in="SourceAlpha" result="hardAlpha" type="matrix" values="0 0 0 0 0 0 0 0 0 0 0 0 0 0 0 0 0 0 127 0"/><feOffset/><feGaussianBlur stdDeviation="3"/><feComposite in2="hardAlpha" operator="out"/><feColorMatrix type="matrix" values="0 0 0 0 1 0 0 0 0 0.337255 0 0 0 0 0.337255 0 0 0 0.5 0"/><feBlend in2="BackgroundImageFix" mode="normal" result="effect1_dropShadow_182_441"/><feBlend in="SourceGraphic" in2="effect1_dropShadow_182_441" mode="normal" result="shape"/></filter><filter id="b" color-interpolation-filters="sRGB" filterUnits="userSpaceOnUse" height="87" width="108.434" x="356.5" y="24"><feFlood flood-opacity="0" result="BackgroundImageFix"/><feColorMatrix in="SourceAlpha" result="hardAlpha" type="matrix" values="0 0 0 0 0 0 0 0 0 0 0 0 0 0 0 0 0 0 127 0"/><feOffset/><feGaussianBlur stdDeviation="3"/><feComposite in2="hardAlpha" operator="out"/><feColorMatrix type="matrix" values="0 0 0 0 1 0 0 0 0 0.337255 0 0 0 0 0.337255 0 0 0 0.5 0"/><feBlend in2="BackgroundImageFix" mode="normal" result="effect1_dropShadow_182_441"/><feBlend in="SourceGraphic" in2="effect1_dropShadow_182_441" mode="normal" result="shape"/></filter><filter id="c" color-interpolation-filters="sRGB" filterUnits="userSpaceOnUse" height="24" width="24" x="179.5" y="56"><feFlood flood-opacity="0" result="BackgroundImageFix"/><feColorMatrix in="SourceAlpha" result="hardAlpha" type="matrix" values="0 0 0 0 0 0 0 0 0 0 0 0 0 0 0 0 0 0 127 0"/><feOffset/><feGaussianBlur stdDeviation="4"/><feComposite in2="hardAlpha" operator="out"/><feColorMatrix type="matrix" values="0 0 0 0 0.968627 0 0 0 0 0.0862745 0 0 0 0 0.0862745 0 0 0 1 0"/><feBlend in2="BackgroundImageFix" mode="hard-light" result="effect1_dropShadow_182_441"/><feBlend in="SourceGraphic" in2="effect1_dropShadow_182_441" mode="normal" result="shape"/></filter><filter id="d" color-interpolation-filters="sRGB" filterUnits="userSpaceOnUse" height="59.6" width="133.6" x="190.7" y="42.2"><feFlood flood-opacity="0" result="BackgroundImageFix"/><feGaussianBlur in="BackgroundImageFix" stdDeviation="2"/><feComposite in2="SourceAlpha" operator="in" result="effect1_backgroundBlur_182_441"/><feColorMatrix in="SourceAlpha" result="hardAlpha" type="matrix" values="0 0 0 0 0 0 0 0 0 0 0 0 0 0 0 0 0 0 127 0"/><feOffset dy="4"/><feGaussianBlur stdDeviation="6.9"/><feComposite in2="hardAlpha" operator="out"/><feColorMatrix type="matrix" values="0 0 0 0 0.969775 0 0 0 0 0.0857077 0 0 0 0 0.0857077 0 0 0 0.44 0"/><feBlend in2="effect1_backgroundBlur_182_441" mode="hard-light" result="effect2_dropShadow_182_441"/><feBlend in="SourceGraphic" in2="effect2_dropShadow_182_441" mode="normal" result="shape"/></filter><mask id="e" fill="#fff"><path d="m0 415.5h275v116h-275z" fill="#fff"/></mask><mask id="f" fill="#fff"><path d="m275 415.5h275v116h-275z" fill="#fff"/></mask><mask id="g" fill="#fff"><path d="m550 415.5h275v116h-275z" fill="#fff"/></mask><rect height="547" rx="23.5" stroke="#5c5b5e" stroke-opacity=".4" width="1099" x=".5" y="1"/><path d="m172.5 212.001h466" stroke="#5c5b5e"/><path d="m732.5 212h141.151c13.807 0 25-11.193 25-25v-34.151c0-7.096 5.753-12.849 12.849-12.849" stroke="#5c5b5e"/><path d="m732.5 212h141.151c13.807 0 25 11.193 25 25v34.151c0 7.096 5.753 12.849 12.849 12.849" stroke="#5c5b5e"/><path d="m134.5 166c0-12.15 9.85-22 22-22h207" stroke="#5c5b5e"/><path d="m686.5 166c0-12.15-9.85-22-22-22h-207" stroke="#5c5b5e"/><path d="m134.5 166v-73c0-13.8071 11.193-25 25-25h204" stroke="#ff5656"/><path d="m686.5 166v-73c0-13.8071-11.193-25-25-25h-204" stroke="#5c5b5e"/><path d="m134.5 257c0 12.15 9.85 22 22 22h207" stroke="#5c5b5e"/><path d="m686.5 257c0 12.15-9.85 22-22 22h-207" stroke="#5c5b5e"/><path d="m134.5 257v73c0 13.807 11.193 25 25 25h204" stroke="#5c5b5e"/><path d="m686.5 257v73c0 13.807-11.193 25-25 25h-204" stroke="#5c5b5e"/><g filter="url(#a)"><rect fill="#090a0f" height="91" rx="12" shape-rendering="crispEdges" width="76" x="96.5" y="166"/><rect height="92" rx="12.5" shape-rendering="crispEdges" stroke="#ff5656" width="77" x="96" y="165.5"/><rect fill="#090a0f" height="83" rx="8" width="68" x="100.5" y="170"/><g stroke="#fff"><rect height="82" rx="7.5" stroke-opacity=".4" width="67" x="101" y="170.5"/><rect height="35" rx="17.5" stroke-opacity=".4" width="35" x="117" y="182.5"/><path d="m131.363 197.647c1.559 0 2.823-1.265 2.823-2.824s-1.264-2.824-2.823-2.824c-1.56 0-2.824 1.265-2.824 2.824s1.264 2.824 2.824 2.824z" stroke-linecap="round" stroke-linejoin="round"/><path d="m136.433 207.143c1.05-.365 1.588-1.577 1.087-2.57-1.137-2.248-3.465-3.79-6.157-3.79s-5.02 1.541-6.157 3.79c-.502.993.035 2.205 1.087 2.57 1.294.449 3.022.857 5.07.857s3.776-.408 5.07-.857z" stroke-linecap="round" stroke-linejoin="round"/><path d="m140.206 207.784c.952-.161 1.792-.395 2.501-.641 1.051-.365 1.589-1.578 1.087-2.57-.979-1.936-2.84-3.347-5.057-3.702" stroke-linecap="round" stroke-linejoin="round"/><path d="m136.675 197.471c.301.109.624.176.962.176 1.56 0 2.824-1.264 2.824-2.824s-1.264-2.824-2.824-2.824c-.338 0-.661.066-.962.176" stroke-linecap="round" stroke-linejoin="round"/></g><text fill="#fff" font-family="Area Variable" font-size="14" letter-spacing="0em"><tspan x="121.5" y="237.548">0xa</tspan></text></g><rect height="64" rx="7.5" stroke="#fff" stroke-opacity=".4" width="85.4344" x="368" y="111.5"/><path d="m432.303 148.566h-43.172c-3.11 0-5.631 2.073-5.631 4.63v6.174c0 2.557 2.521 4.63 5.631 4.63h43.172c3.11 0 5.631-2.073 5.631-4.63v-6.174c0-2.557-2.521-4.63-5.631-4.63z" stroke="#7ff" stroke-linecap="round" stroke-linejoin="round" stroke-width="1.5"/><path d="m383.708 152 8.311-24.034c1.026-2.966 3.907-4.966 7.158-4.966h23.063c3.247 0 6.131 2 7.157 4.966l8.311 24.034" stroke="#7ff" stroke-linecap="round" stroke-linejoin="round" stroke-width="1.5"/><path d="m392.885 156.282h10.324" stroke="#7ff" stroke-linecap="round" stroke-linejoin="round" stroke-width="1.5"/><text fill="#fff" font-family="Area Variable" font-size="14" letter-spacing="0em"><tspan x="397.717" y="140.548">0x2</tspan></text><rect height="64" rx="7.5" stroke="#fff" stroke-opacity=".4" width="85.4344" x="368" y="246.5"/><path d="m432.303 283.566h-43.172c-3.11 0-5.631 2.073-5.631 4.63v6.174c0 2.557 2.521 4.63 5.631 4.63h43.172c3.11 0 5.631-2.073 5.631-4.63v-6.174c0-2.557-2.521-4.63-5.631-4.63z" stroke="#7ff" stroke-linecap="round" stroke-linejoin="round" stroke-width="1.5"/><path d="m383.708 287 8.311-24.034c1.026-2.966 3.907-4.966 7.158-4.966h23.063c3.247 0 6.131 2 7.157 4.966l8.311 24.034" stroke="#7ff" stroke-linecap="round" stroke-linejoin="round" stroke-width="1.5"/><path d="m392.885 291.282h10.324" stroke="#7ff" stroke-linecap="round" stroke-linejoin="round" stroke-width="1.5"/><text fill="#fff" font-family="Area Variable" font-size="14" letter-spacing="0em"><tspan x="397.717" y="275.548">0x2</tspan></text><rect height="64" rx="7.5" stroke="#fff" stroke-opacity=".4" width="85.4344" x="368" y="322.5"/><path d="m432.303 359.566h-43.172c-3.11 0-5.631 2.073-5.631 4.63v6.174c0 2.557 2.521 4.63 5.631 4.63h43.172c3.11 0 5.631-2.073 5.631-4.63v-6.174c0-2.557-2.521-4.63-5.631-4.63z" stroke="#7ff" stroke-linecap="round" stroke-linejoin="round" stroke-width="1.5"/><path d="m383.708 363 8.311-24.034c1.026-2.966 3.907-4.966 7.158-4.966h23.063c3.247 0 6.131 2 7.157 4.966l8.311 24.034" stroke="#7ff" stroke-linecap="round" stroke-linejoin="round" stroke-width="1.5"/><path d="m392.885 367.282h10.324" stroke="#7ff" stroke-linecap="round" stroke-linejoin="round" stroke-width="1.5"/><text fill="#fff" font-family="Area Variable" font-size="14" letter-spacing="0em"><tspan x="397.717" y="351.548">0x2</tspan></text><rect height="59" rx="7.5" stroke="#fff" stroke-opacity=".4" width="91" x="915" y="108.5"/><text fill="#fff" fill-opacity=".6" font-family="Area Variable" font-size="10" letter-spacing="0em"><tspan x="944.5" y="130.82">Rollup</tspan></text><text fill="#fff" font-family="Area Variable" font-size="14" letter-spacing="0em"><tspan x="955" y="152.548">A</tspan></text><rect fill="#090a0f" height="91" rx="12" width="94.4344" x="638.5" y="166.5"/><rect height="82" rx="7.5" stroke="#fff" stroke-opacity=".4" width="85.4344" x="643" y="171"/><g fill="#ffd875"><path d="m677.75 229.435h-.5c-.414 0-.75.336-.75.75v.5c0 .414.336.75.75.75h.5c.414 0 .75-.336.75-.75v-.5c0-.414-.336-.75-.75-.75z"/><path d="m668.75 229.435h-.5c-.414 0-.75.336-.75.75v.5c0 .414.336.75.75.75h.5c.414 0 .75-.336.75-.75v-.5c0-.414-.336-.75-.75-.75z"/><path d="m686.75 229.435h-.5c-.414 0-.75.336-.75.75v.5c0 .414.336.75.75.75h.5c.414 0 .75-.336.75-.75v-.5c0-.414-.336-.75-.75-.75z"/><path d="m695.75 229.435h-.5c-.414 0-.75.336-.75.75v.5c0 .414.336.75.75.75h.5c.414 0 .75-.336.75-.75v-.5c0-.414-.336-.75-.75-.75z"/><path d="m681.75 225.935h-.5c-.414 0-.75.336-.75.75v.5c0 .414.336.75.75.75h.5c.414 0 .75-.336.75-.75v-.5c0-.414-.336-.75-.75-.75z"/><path d="m672.75 225.935h-.5c-.414 0-.75.336-.75.75v.5c0 .414.336.75.75.75h.5c.414 0 .75-.336.75-.75v-.5c0-.414-.336-.75-.75-.75z"/><path d="m690.75 225.935h-.5c-.414 0-.75.336-.75.75v.5c0 .414.336.75.75.75h.5c.414 0 .75-.336.75-.75v-.5c0-.414-.336-.75-.75-.75z"/><path d="m699.75 225.935h-.5c-.414 0-.75.336-.75.75v.5c0 .414.336.75.75.75h.5c.414 0 .75-.336.75-.75v-.5c0-.414-.336-.75-.75-.75z"/><path d="m704.75 229.435h-.5c-.414 0-.75.336-.75.75v.5c0 .414.336.75.75.75h.5c.414 0 .75-.336.75-.75v-.5c0-.414-.336-.75-.75-.75z"/></g><path d="m707.303 211.501h-43.172c-3.11 0-5.631 2.073-5.631 4.63v17.304c0 2.557 2.521 4.63 5.631 4.63h43.172c3.11 0 5.631-2.073 5.631-4.63v-17.304c0-2.557-2.521-4.63-5.631-4.63z" stroke="#fbff42" stroke-linecap="round" stroke-linejoin="round" stroke-width="1.5"/><path d="m658.708 214.935 8.311-24.034c1.026-2.966 3.907-4.966 7.158-4.966h23.063c3.247 0 6.131 2 7.157 4.966l8.311 24.034" stroke="#fbff42" stroke-linecap="round" stroke-linejoin="round" stroke-width="1.5"/><path d="m667.885 219.217h10.324" stroke="#fbff42" stroke-linecap="round" stroke-linejoin="round" stroke-width="1.5"/><text fill="#fff" font-family="Area Variable" font-size="14" letter-spacing="0em"><tspan x="672.717" y="203.048">0x5</tspan></text><rect height="59" rx="7.5" stroke="#fff" stroke-opacity=".4" width="91" x="915" y="253.5"/><text fill="#fff" fill-opacity=".6" font-family="Area Variable" font-size="10" letter-spacing="0em"><tspan x="944.5" y="275.82">Rollup</tspan></text><text fill="#fff" font-family="Area Variable" font-size="14" letter-spacing="0em"><tspan x="955.5" y="297.548">B</tspan></text><g filter="url(#b)"><rect fill="#090a0f" height="73" rx="12" shape-rendering="crispEdges" width="94.4344" x="363.5" y="31"/><rect height="74" rx="12.5" shape-rendering="crispEdges" stroke="#ff5656" width="95.4344" x="363" y="30.5"/><rect height="64" rx="7.5" stroke="#fff" stroke-opacity=".4" width="85.4344" x="368" y="35.5"/><g stroke="#7ff" stroke-linecap="round" stroke-linejoin="round" stroke-width="1.5"><path d="m432.303 72.566h-43.172c-3.11 0-5.631 2.073-5.631 4.6302v6.1736c0 2.5572 2.521 4.6302 5.631 4.6302h43.172c3.11 0 5.631-2.073 5.631-4.6302v-6.1736c0-2.5572-2.521-4.6302-5.631-4.6302z"/><path d="m383.708 76 8.311-24.0342c1.026-2.9657 3.907-4.9658 7.158-4.9658h23.063c3.247 0 6.131 2.0001 7.157 4.9658l8.311 24.0342"/><path d="m392.885 80.2821h10.324"/></g><text fill="#fff" font-family="Area Variable" font-size="14" letter-spacing="0em"><tspan x="397.717" y="64.548">0x2</tspan></text></g><g filter="url(#c)"><circle cx="191.5" cy="68" fill="#ff5656" r="4"/></g><g filter="url(#d)"><rect fill="#fff" height="32" rx="4" shape-rendering="crispEdges" width="106" x="204.5" y="52"/><rect height="31" rx="3.5" shape-rendering="crispEdges" stroke="#ff7070" width="105" x="205" y="52.5"/><text fill="#090a0f" font-family="Area Variable" font-size="10" font-weight="bold" letter-spacing="0em"><tspan x="216.5" y="72.32">Encrypted TX</tspan></text><g stroke-linecap="round" stroke-linejoin="round"><path d="m295.167 64.2227 3.777 3.7777-3.777 3.7778" stroke="#ff5656" stroke-opacity=".4"/><path d="m290.944 64.2227 3.778 3.7777-3.778 3.7778" stroke="#ff5757"/></g></g><path d="m274 415.5v116h2v-116z" fill="#5c5b5e" fill-opacity=".6" mask="url(#e)"/><text fill="#fff" font-family="Area Variable" font-size="16" font-weight="bold" letter-spacing="0em"><tspan x="115" y="446.412">USER</tspan></text><path d="m17.8334 471.833 2.5 2.5 5.8333-5.833" stroke="#fff" stroke-linecap="round" stroke-linejoin="round"/><text fill="#fff" fill-opacity=".4" font-family="Area Variable" font-size="12" letter-spacing="-.25"><tspan x="34" y="476.86">Submits encrypted TX to sequencer</tspan></text><path d="m549 415.5v116h2v-116z" fill="#5c5b5e" fill-opacity=".6" mask="url(#f)"/><text fill="#fff" font-family="Area Variable" font-size="16" font-weight="bold" letter-spacing="0em"><tspan x="364.5" y="446.412">FOLLOWER</tspan></text><path d="m292.833 471.833 2.5 2.5 5.834-5.833" stroke="#fff" stroke-linecap="round" stroke-linejoin="round"/><text fill="#fff" fill-opacity=".4" font-family="Area Variable" font-size="12" letter-spacing="-.25"><tspan x="309" y="476.86">Forwards encrypted TX to leader</tspan></text><path d="m292.833 493.833 2.5 2.5 5.834-5.833" stroke="#fff" stroke-linecap="round" stroke-linejoin="round"/><text fill="#fff" fill-opacity=".4" font-family="Area Variable" font-size="12" letter-spacing="0em"><tspan x="309" y="498.86">Forwards order commitment</tspan></text><path d="m824 415.5v116h2v-116z" fill="#5c5b5e" fill-opacity=".6" mask="url(#g)"/><text fill="#fff" font-family="Area Variable" font-size="16" font-weight="bold" letter-spacing="0em"><tspan x="654" y="446.412">LEADER</tspan></text><path d="m567.833 471.833 2.5 2.5 5.834-5.833" stroke="#fff" stroke-linecap="round" stroke-linejoin="round"/><text fill="#fff" fill-opacity=".4" font-family="Area Variable" font-size="12" letter-spacing="-.25"><tspan x="584" y="476.86">Orders encrypted TX and builds block</tspan></text><path d="m567.833 493.833 2.5 2.5 5.834-5.833" stroke="#fff" stroke-linecap="round" stroke-linejoin="round"/><text fill="#fff" fill-opacity=".4" font-family="Area Variable" font-size="12" letter-spacing="0em"><tspan x="584" y="498.86">Provides order commitment</tspan></text><text fill="#fff" font-family="Area Variable" font-size="16" font-weight="bold" letter-spacing="0em"><tspan x="929" y="446.412">ROLLUP</tspan></text><path d="m873.833 471.833 2.5 2.5 5.834-5.833" stroke="#fff" stroke-linecap="round" stroke-linejoin="round"/><text fill="#fff" fill-opacity=".4" font-family="Area Variable" font-size="12" letter-spacing="0em"><tspan x="890.424" y="476.86">Receives block from leader</tspan></text></svg>