<svg width="97" height="28" viewBox="0 0 97 28" fill="none" xmlns="http://www.w3.org/2000/svg">
<rect width="97" height="28" fill="#FFA077"/>
<path d="M14.9072 9.04688V19H13.1914L8.72754 11.8701V19H7.01172V9.04688H8.72754L13.2051 16.1904V9.04688H14.9072ZM23.4658 17.6396V19H18.1816V17.6396H23.4658ZM18.667 9.04688V19H16.9512V9.04688H18.667ZM22.7754 13.2031V14.543H18.1816V13.2031H22.7754ZM23.4316 9.04688V10.4141H18.1816V9.04688H23.4316ZM27.3623 16.7646L29.3447 9.04688H30.3838L30.2676 11.0361L28.1484 19H27.0684L27.3623 16.7646ZM25.8789 9.04688L27.4854 16.7031L27.6289 19H26.4805L24.1768 9.04688H25.8789ZM32.6328 16.6826L34.2188 9.04688H35.9277L33.624 19H32.4756L32.6328 16.6826ZM30.7871 9.04688L32.749 16.7852L33.0361 19H31.9561L29.8711 11.0361L29.7617 9.04688H30.7871ZM46.9199 17.6396V19H41.9229V17.6396H46.9199ZM42.4014 9.04688V19H40.6855V9.04688H42.4014ZM54.7607 17.6396V19H49.4766V17.6396H54.7607ZM49.9619 9.04688V19H48.2461V9.04688H49.9619ZM54.0703 13.2031V14.543H49.4766V13.2031H54.0703ZM54.7266 9.04688V10.4141H49.4766V9.04688H54.7266ZM60.0381 10.373L57.0645 19H55.2666L59.0127 9.04688H60.1611L60.0381 10.373ZM62.5264 19L59.5459 10.373L59.416 9.04688H60.5713L64.3311 19H62.5264ZM62.3828 15.3086V16.6689H56.9688V15.3086H62.3828ZM68.3369 19H66.2109L66.2246 17.6396H68.3369C68.9521 17.6396 69.4671 17.5052 69.8818 17.2363C70.3011 16.9674 70.6156 16.5824 70.8252 16.0811C71.0394 15.5798 71.1465 14.9827 71.1465 14.29V13.75C71.1465 13.2122 71.085 12.736 70.9619 12.3213C70.8434 11.9066 70.6657 11.5579 70.4287 11.2754C70.1963 10.9928 69.9092 10.7786 69.5674 10.6328C69.2301 10.487 68.8405 10.4141 68.3984 10.4141H66.1699V9.04688H68.3984C69.0592 9.04688 69.6631 9.15853 70.21 9.38184C70.7568 9.60059 71.2285 9.91732 71.625 10.332C72.026 10.7467 72.3337 11.2435 72.5479 11.8223C72.762 12.401 72.8691 13.0482 72.8691 13.7637V14.29C72.8691 15.0055 72.762 15.6527 72.5479 16.2314C72.3337 16.8102 72.026 17.307 71.625 17.7217C71.224 18.1318 70.7454 18.4486 70.1895 18.6719C69.638 18.8906 69.0205 19 68.3369 19ZM67.1611 9.04688V19H65.4453V9.04688H67.1611ZM81.1064 17.6396V19H75.8223V17.6396H81.1064ZM76.3076 9.04688V19H74.5918V9.04688H76.3076ZM80.416 13.2031V14.543H75.8223V13.2031H80.416ZM81.0723 9.04688V10.4141H75.8223V9.04688H81.0723ZM82.5078 9.04688H86.0283C86.7848 9.04688 87.4297 9.16081 87.9629 9.38867C88.4961 9.61654 88.904 9.95378 89.1865 10.4004C89.4736 10.8424 89.6172 11.3893 89.6172 12.041C89.6172 12.5378 89.526 12.9753 89.3438 13.3535C89.1615 13.7318 88.904 14.0508 88.5713 14.3105C88.2386 14.5658 87.8421 14.764 87.3818 14.9053L86.8623 15.1582H83.6973L83.6836 13.7979H86.0557C86.4658 13.7979 86.8076 13.7249 87.0811 13.5791C87.3545 13.4333 87.5596 13.235 87.6963 12.9844C87.8376 12.7292 87.9082 12.4421 87.9082 12.123C87.9082 11.7767 87.8398 11.4759 87.7031 11.2207C87.571 10.9609 87.3659 10.7627 87.0879 10.626C86.8099 10.4847 86.4567 10.4141 86.0283 10.4141H84.2236V19H82.5078V9.04688ZM88.1885 19L85.8506 14.5293L87.6484 14.5225L90.0205 18.9111V19H88.1885Z" fill="white"/>
</svg>
