<svg width="179" height="20" viewBox="0 0 179 20" fill="none" xmlns="http://www.w3.org/2000/svg">
<path d="M9.64 12.248H1.996V9.644H8.996C9.668 9.644 10.284 9.55067 10.844 9.364C11.404 9.17733 11.8427 8.86933 12.16 8.44C12.496 7.992 12.664 7.39467 12.664 6.648C12.664 5.84533 12.496 5.22 12.16 4.772C11.8427 4.324 11.404 4.00667 10.844 3.82C10.284 3.63333 9.668 3.54 8.996 3.54H1.996V0.74H9.304C10.5733 0.74 11.712 0.963999 12.72 1.412C13.728 1.84133 14.5213 2.48533 15.1 3.344C15.6787 4.20267 15.968 5.276 15.968 6.564C15.968 7.75867 15.688 8.75733 15.128 9.56C14.568 10.3627 13.812 10.9693 12.86 11.38C11.908 11.772 10.8347 11.968 9.64 11.968V12.248ZM4.012 19.5H0.848V0.74H4.012V19.5ZM16.612 19.5H12.944L9.724 13.928C9.36933 13.2933 8.93067 12.8547 8.408 12.612C7.904 12.3693 7.204 12.248 6.308 12.248L9.836 11.688C10.4147 11.744 10.9187 11.8747 11.348 12.08C11.7773 12.2667 12.16 12.528 12.496 12.864C12.832 13.1813 13.14 13.592 13.42 14.096L16.612 19.5ZM30.5468 19.5H28.5868C28.1201 19.5 27.6908 19.416 27.2988 19.248C26.9068 19.08 26.5895 18.8093 26.3468 18.436C26.1041 18.044 25.9828 17.5213 25.9828 16.868V11.66V11.24C25.9828 10.3813 25.8055 9.69067 25.4508 9.168C25.1148 8.62667 24.4148 8.356 23.3508 8.356C22.4361 8.356 21.6335 8.58933 20.9428 9.056C20.2521 9.52267 19.7108 10.12 19.3188 10.848L17.4428 8.608C17.7975 8.12267 18.2641 7.656 18.8428 7.208C19.4401 6.74133 20.1401 6.35867 20.9428 6.06C21.7455 5.74267 22.6508 5.584 23.6588 5.584C25.3388 5.584 26.6361 6.05067 27.5508 6.984C28.4841 7.89867 28.9508 9.196 28.9508 10.876V16C28.9508 16.2987 29.0068 16.5133 29.1188 16.644C29.2495 16.756 29.4361 16.812 29.6788 16.812H30.5468V19.5ZM21.4188 19.78C20.2988 19.78 19.4121 19.4907 18.7588 18.912C18.1241 18.3333 17.8068 17.5493 17.8068 16.56C17.8068 15.5893 18.1241 14.796 18.7588 14.18C19.3935 13.5453 20.2708 13.0133 21.3908 12.584L26.3748 10.484L26.7388 12.472L22.5108 14.376C21.9135 14.6373 21.4841 14.8987 21.2228 15.16C20.9801 15.4213 20.8588 15.7293 20.8588 16.084C20.8588 16.476 20.9895 16.784 21.2508 17.008C21.5308 17.232 21.9601 17.344 22.5388 17.344C23.0615 17.344 23.5281 17.2693 23.9388 17.12C24.3681 16.9707 24.7321 16.7653 25.0308 16.504C25.3481 16.224 25.5815 15.8973 25.7308 15.524C25.8988 15.1507 25.9828 14.7307 25.9828 14.264L26.0668 15.58C25.9548 16.196 25.7215 16.8307 25.3668 17.484C25.0121 18.1373 24.5081 18.688 23.8548 19.136C23.2201 19.5653 22.4081 19.78 21.4188 19.78ZM37.6223 19.808C36.5023 19.808 35.5316 19.528 34.7103 18.968C33.8889 18.3893 33.2543 17.568 32.8063 16.504C32.3583 15.44 32.1343 14.1707 32.1343 12.696C32.1343 11.2213 32.3583 9.96133 32.8063 8.916C33.2543 7.852 33.8796 7.03067 34.6823 6.452C35.5036 5.87333 36.4649 5.584 37.5663 5.584C38.6116 5.584 39.4516 5.82667 40.0863 6.312C40.7209 6.77867 41.1876 7.39467 41.4863 8.16C41.8036 8.92533 42.0089 9.728 42.1023 10.568L41.9343 11.856C41.9343 11.1093 41.8223 10.4653 41.5983 9.924C41.3929 9.364 41.0569 8.93467 40.5903 8.636C40.1236 8.31867 39.5263 8.16 38.7983 8.16C37.8089 8.16 36.9876 8.53333 36.3343 9.28C35.6809 10.0267 35.3543 11.1653 35.3543 12.696C35.3543 14.2267 35.6809 15.3747 36.3343 16.14C37.0063 16.8867 37.8369 17.26 38.8263 17.26C39.5543 17.26 40.1423 17.1107 40.5903 16.812C41.0569 16.4947 41.3929 16.0653 41.5983 15.524C41.8223 14.964 41.9343 14.3107 41.9343 13.564L42.1023 14.824C42.0089 15.664 41.8129 16.4667 41.5143 17.232C41.2156 17.9787 40.7583 18.5947 40.1423 19.08C39.5263 19.5653 38.6863 19.808 37.6223 19.808ZM45.0703 19.5H41.9343V0.74H45.0703V19.5ZM51.5028 3.932H48.3668V0.74H51.5028V3.932ZM51.5028 19.5H48.3668V5.864H51.5028V19.5ZM58.992 19.78C58.1146 19.78 57.3493 19.612 56.696 19.276C56.0613 18.9213 55.576 18.4173 55.24 17.764C54.904 17.092 54.736 16.2893 54.736 15.356V5.864H57.872V14.404C57.872 15.244 58.0586 15.9253 58.432 16.448C58.8053 16.9707 59.5053 17.232 60.532 17.232C61.2973 17.232 61.904 17.0827 62.352 16.784C62.8 16.4667 63.1173 16.028 63.304 15.468C63.5093 14.908 63.612 14.2547 63.612 13.508L63.78 14.796C63.6866 15.636 63.4626 16.4387 63.108 17.204C62.7533 17.9507 62.24 18.5667 61.568 19.052C60.896 19.5373 60.0373 19.78 58.992 19.78ZM66.776 19.5H63.612V5.864H66.776V19.5ZM75.2683 19.78C74.2976 19.78 73.3736 19.6493 72.4963 19.388C71.6189 19.1267 70.8443 18.7533 70.1723 18.268C69.5189 17.764 69.0149 17.1573 68.6603 16.448L70.4803 14.488C70.7603 14.936 71.1243 15.3747 71.5723 15.804C72.0203 16.2333 72.5616 16.588 73.1963 16.868C73.8309 17.1293 74.5589 17.26 75.3803 17.26C76.0523 17.26 76.5843 17.1387 76.9763 16.896C77.3869 16.6347 77.5923 16.2707 77.5923 15.804C77.5923 15.3 77.3589 14.936 76.8923 14.712C76.4256 14.488 75.8096 14.2827 75.0443 14.096L73.2243 13.676C72.5149 13.4893 71.8429 13.2467 71.2083 12.948C70.5736 12.6493 70.0603 12.248 69.6683 11.744C69.2763 11.2213 69.0803 10.5493 69.0803 9.728C69.0803 8.44 69.5469 7.432 70.4803 6.704C71.4323 5.976 72.6923 5.612 74.2603 5.612C75.7163 5.612 76.9389 5.91067 77.9283 6.508C78.9363 7.10533 79.6456 7.78667 80.0563 8.552L78.2083 10.512C77.7416 9.76533 77.1443 9.18667 76.4163 8.776C75.7069 8.34667 74.9136 8.132 74.0363 8.132C73.4203 8.132 72.9256 8.25333 72.5523 8.496C72.1976 8.73867 72.0203 9.084 72.0203 9.532C72.0203 10.0173 72.2163 10.3907 72.6083 10.652C73.0189 10.8947 73.6816 11.128 74.5963 11.352L76.2483 11.772C77.7789 12.164 78.8523 12.6867 79.4683 13.34C80.1029 13.9747 80.4203 14.7773 80.4203 15.748C80.4203 16.644 80.1869 17.3907 79.7203 17.988C79.2723 18.5853 78.6563 19.0333 77.8723 19.332C77.1069 19.6307 76.2389 19.78 75.2683 19.78ZM96.4549 19.5H93.2909V0.74H96.4549V19.5ZM102.223 3.54H87.5229V0.74H102.223V3.54ZM107.927 19.78C106.583 19.78 105.397 19.4907 104.371 18.912C103.363 18.3147 102.579 17.484 102.019 16.42C101.477 15.3373 101.207 14.096 101.207 12.696C101.207 11.2587 101.477 10.008 102.019 8.944C102.579 7.88 103.344 7.05867 104.315 6.48C105.304 5.88267 106.433 5.584 107.703 5.584C109.065 5.584 110.223 5.864 111.175 6.424C112.127 6.984 112.845 7.74933 113.331 8.72C113.816 9.69067 114.059 10.8107 114.059 12.08C114.059 12.3413 114.049 12.6027 114.031 12.864C114.012 13.1067 113.984 13.3027 113.947 13.452H103.503V11.436H111.875L111.259 12.164C111.259 10.8387 110.951 9.83067 110.335 9.14C109.719 8.44933 108.841 8.104 107.703 8.104C106.62 8.104 105.761 8.45867 105.127 9.168C104.492 9.87733 104.175 10.932 104.175 12.332V12.948C104.175 13.8627 104.324 14.6373 104.623 15.272C104.94 15.9067 105.388 16.392 105.967 16.728C106.545 17.0453 107.208 17.204 107.955 17.204C108.757 17.204 109.411 17.0827 109.915 16.84C110.437 16.5973 110.857 16.2987 111.175 15.944C111.492 15.5707 111.735 15.1973 111.903 14.824L113.835 16.868C113.331 17.6333 112.593 18.3147 111.623 18.912C110.671 19.4907 109.439 19.78 107.927 19.78ZM122.19 19.78C121.219 19.78 120.295 19.6493 119.418 19.388C118.541 19.1267 117.766 18.7533 117.094 18.268C116.441 17.764 115.937 17.1573 115.582 16.448L117.402 14.488C117.682 14.936 118.046 15.3747 118.494 15.804C118.942 16.2333 119.483 16.588 120.118 16.868C120.753 17.1293 121.481 17.26 122.302 17.26C122.974 17.26 123.506 17.1387 123.898 16.896C124.309 16.6347 124.514 16.2707 124.514 15.804C124.514 15.3 124.281 14.936 123.814 14.712C123.347 14.488 122.731 14.2827 121.966 14.096L120.146 13.676C119.437 13.4893 118.765 13.2467 118.13 12.948C117.495 12.6493 116.982 12.248 116.59 11.744C116.198 11.2213 116.002 10.5493 116.002 9.728C116.002 8.44 116.469 7.432 117.402 6.704C118.354 5.976 119.614 5.612 121.182 5.612C122.638 5.612 123.861 5.91067 124.85 6.508C125.858 7.10533 126.567 7.78667 126.978 8.552L125.13 10.512C124.663 9.76533 124.066 9.18667 123.338 8.776C122.629 8.34667 121.835 8.132 120.958 8.132C120.342 8.132 119.847 8.25333 119.474 8.496C119.119 8.73867 118.942 9.084 118.942 9.532C118.942 10.0173 119.138 10.3907 119.53 10.652C119.941 10.8947 120.603 11.128 121.518 11.352L123.17 11.772C124.701 12.164 125.774 12.6867 126.39 13.34C127.025 13.9747 127.342 14.7773 127.342 15.748C127.342 16.644 127.109 17.3907 126.642 17.988C126.194 18.5853 125.578 19.0333 124.794 19.332C124.029 19.6307 123.161 19.78 122.19 19.78ZM134.478 19.808C133.62 19.808 132.882 19.64 132.266 19.304C131.669 18.968 131.212 18.5013 130.894 17.904C130.577 17.288 130.418 16.5787 130.418 15.776V4.212L133.554 2.224V15.02C133.554 15.748 133.704 16.2427 134.002 16.504C134.32 16.7467 134.712 16.868 135.178 16.868C135.701 16.868 136.149 16.6907 136.522 16.336C136.914 15.9813 137.213 15.608 137.418 15.216L138.398 18.016C138.1 18.4453 137.614 18.856 136.942 19.248C136.289 19.6213 135.468 19.808 134.478 19.808ZM137.726 8.3H128.29V5.864H137.726V8.3ZM151.981 19.5H148.817V10.988C148.817 10.148 148.64 9.46667 148.285 8.944C147.93 8.42133 147.221 8.16 146.157 8.16C145.392 8.16 144.785 8.31867 144.337 8.636C143.889 8.93467 143.562 9.364 143.357 9.924C143.17 10.4653 143.077 11.1093 143.077 11.856L142.909 10.568C143.002 9.728 143.226 8.92533 143.581 8.16C143.936 7.39467 144.449 6.77867 145.121 6.312C145.793 5.82667 146.652 5.584 147.697 5.584C149.022 5.584 150.068 5.96667 150.833 6.732C151.598 7.49733 151.981 8.58933 151.981 10.008V19.5ZM143.077 19.5H139.941V5.864H143.077V19.5ZM161.192 19.78C159.848 19.78 158.663 19.4907 157.636 18.912C156.628 18.3147 155.844 17.484 155.284 16.42C154.743 15.3373 154.472 14.096 154.472 12.696C154.472 11.2587 154.743 10.008 155.284 8.944C155.844 7.88 156.61 7.05867 157.58 6.48C158.57 5.88267 159.699 5.584 160.968 5.584C162.331 5.584 163.488 5.864 164.44 6.424C165.392 6.984 166.111 7.74933 166.596 8.72C167.082 9.69067 167.324 10.8107 167.324 12.08C167.324 12.3413 167.315 12.6027 167.296 12.864C167.278 13.1067 167.25 13.3027 167.212 13.452H156.768V11.436H165.14L164.524 12.164C164.524 10.8387 164.216 9.83067 163.6 9.14C162.984 8.44933 162.107 8.104 160.968 8.104C159.886 8.104 159.027 8.45867 158.392 9.168C157.758 9.87733 157.44 10.932 157.44 12.332V12.948C157.44 13.8627 157.59 14.6373 157.888 15.272C158.206 15.9067 158.654 16.392 159.232 16.728C159.811 17.0453 160.474 17.204 161.22 17.204C162.023 17.204 162.676 17.0827 163.18 16.84C163.703 16.5973 164.123 16.2987 164.44 15.944C164.758 15.5707 165 15.1973 165.168 14.824L167.1 16.868C166.596 17.6333 165.859 18.3147 164.888 18.912C163.936 19.4907 162.704 19.78 161.192 19.78ZM174.756 19.808C173.897 19.808 173.16 19.64 172.544 19.304C171.946 18.968 171.489 18.5013 171.172 17.904C170.854 17.288 170.696 16.5787 170.696 15.776V4.212L173.832 2.224V15.02C173.832 15.748 173.981 16.2427 174.28 16.504C174.597 16.7467 174.989 16.868 175.456 16.868C175.978 16.868 176.426 16.6907 176.8 16.336C177.192 15.9813 177.49 15.608 177.696 15.216L178.676 18.016C178.377 18.4453 177.892 18.856 177.22 19.248C176.566 19.6213 175.745 19.808 174.756 19.808ZM178.004 8.3H168.568V5.864H178.004V8.3Z" fill="white"/>
</svg>
