<svg width="154" height="28" viewBox="0 0 154 28" fill="none" xmlns="http://www.w3.org/2000/svg">
<rect width="154" height="28" fill="#1BC199"/>
<path d="M14.9482 13.75V14.2969C14.9482 15.0488 14.8503 15.7233 14.6543 16.3203C14.4583 16.9173 14.1781 17.4255 13.8135 17.8447C13.4535 18.264 13.0205 18.5853 12.5146 18.8086C12.0088 19.0273 11.4482 19.1367 10.833 19.1367C10.2223 19.1367 9.66406 19.0273 9.1582 18.8086C8.6569 18.5853 8.22168 18.264 7.85254 17.8447C7.4834 17.4255 7.19629 16.9173 6.99121 16.3203C6.79069 15.7233 6.69043 15.0488 6.69043 14.2969V13.75C6.69043 12.998 6.79069 12.3258 6.99121 11.7334C7.19173 11.1364 7.47428 10.6283 7.83887 10.209C8.20801 9.78516 8.64323 9.46387 9.14453 9.24512C9.65039 9.02181 10.2087 8.91016 10.8193 8.91016C11.4346 8.91016 11.9951 9.02181 12.501 9.24512C13.0068 9.46387 13.4421 9.78516 13.8066 10.209C14.1712 10.6283 14.4515 11.1364 14.6475 11.7334C14.848 12.3258 14.9482 12.998 14.9482 13.75ZM13.2324 14.2969V13.7363C13.2324 13.1803 13.1777 12.6904 13.0684 12.2666C12.9635 11.8382 12.8063 11.4805 12.5967 11.1934C12.3916 10.9017 12.1387 10.6829 11.8379 10.5371C11.5371 10.3867 11.1976 10.3115 10.8193 10.3115C10.4411 10.3115 10.1038 10.3867 9.80762 10.5371C9.51139 10.6829 9.25846 10.9017 9.04883 11.1934C8.84375 11.4805 8.68652 11.8382 8.57715 12.2666C8.46777 12.6904 8.41309 13.1803 8.41309 13.7363V14.2969C8.41309 14.8529 8.46777 15.3451 8.57715 15.7734C8.68652 16.2018 8.84603 16.5641 9.05566 16.8604C9.26986 17.152 9.52507 17.373 9.82129 17.5234C10.1175 17.6693 10.4548 17.7422 10.833 17.7422C11.2158 17.7422 11.5553 17.6693 11.8516 17.5234C12.1478 17.373 12.3984 17.152 12.6035 16.8604C12.8086 16.5641 12.9635 16.2018 13.0684 15.7734C13.1777 15.3451 13.2324 14.8529 13.2324 14.2969ZM16.6641 9.04688H20.1846C20.9411 9.04688 21.5859 9.16081 22.1191 9.38867C22.6523 9.61654 23.0602 9.95378 23.3428 10.4004C23.6299 10.8424 23.7734 11.3893 23.7734 12.041C23.7734 12.5378 23.6823 12.9753 23.5 13.3535C23.3177 13.7318 23.0602 14.0508 22.7275 14.3105C22.3949 14.5658 21.9984 14.764 21.5381 14.9053L21.0186 15.1582H17.8535L17.8398 13.7979H20.2119C20.6221 13.7979 20.9639 13.7249 21.2373 13.5791C21.5107 13.4333 21.7158 13.235 21.8525 12.9844C21.9938 12.7292 22.0645 12.4421 22.0645 12.123C22.0645 11.7767 21.9961 11.4759 21.8594 11.2207C21.7272 10.9609 21.5221 10.7627 21.2441 10.626C20.9661 10.4847 20.613 10.4141 20.1846 10.4141H18.3799V19H16.6641V9.04688ZM22.3447 19L20.0068 14.5293L21.8047 14.5225L24.1768 18.9111V19H22.3447ZM28.374 19H26.248L26.2617 17.6396H28.374C28.9893 17.6396 29.5042 17.5052 29.9189 17.2363C30.3382 16.9674 30.6527 16.5824 30.8623 16.0811C31.0765 15.5798 31.1836 14.9827 31.1836 14.29V13.75C31.1836 13.2122 31.1221 12.736 30.999 12.3213C30.8805 11.9066 30.7028 11.5579 30.4658 11.2754C30.2334 10.9928 29.9463 10.7786 29.6045 10.6328C29.2673 10.487 28.8776 10.4141 28.4355 10.4141H26.207V9.04688H28.4355C29.0964 9.04688 29.7002 9.15853 30.2471 9.38184C30.7939 9.60059 31.2656 9.91732 31.6621 10.332C32.0632 10.7467 32.3708 11.2435 32.585 11.8223C32.7992 12.401 32.9062 13.0482 32.9062 13.7637V14.29C32.9062 15.0055 32.7992 15.6527 32.585 16.2314C32.3708 16.8102 32.0632 17.307 31.6621 17.7217C31.2611 18.1318 30.7826 18.4486 30.2266 18.6719C29.6751 18.8906 29.0576 19 28.374 19ZM27.1982 9.04688V19H25.4824V9.04688H27.1982ZM41.1436 17.6396V19H35.8594V17.6396H41.1436ZM36.3447 9.04688V19H34.6289V9.04688H36.3447ZM40.4531 13.2031V14.543H35.8594V13.2031H40.4531ZM41.1094 9.04688V10.4141H35.8594V9.04688H41.1094ZM42.5449 9.04688H46.0654C46.8219 9.04688 47.4668 9.16081 48 9.38867C48.5332 9.61654 48.9411 9.95378 49.2236 10.4004C49.5107 10.8424 49.6543 11.3893 49.6543 12.041C49.6543 12.5378 49.5632 12.9753 49.3809 13.3535C49.1986 13.7318 48.9411 14.0508 48.6084 14.3105C48.2757 14.5658 47.8792 14.764 47.4189 14.9053L46.8994 15.1582H43.7344L43.7207 13.7979H46.0928C46.5029 13.7979 46.8447 13.7249 47.1182 13.5791C47.3916 13.4333 47.5967 13.235 47.7334 12.9844C47.8747 12.7292 47.9453 12.4421 47.9453 12.123C47.9453 11.7767 47.877 11.4759 47.7402 11.2207C47.6081 10.9609 47.403 10.7627 47.125 10.626C46.847 10.4847 46.4938 10.4141 46.0654 10.4141H44.2607V19H42.5449V9.04688ZM48.2256 19L45.8877 14.5293L47.6855 14.5225L50.0576 18.9111V19H48.2256ZM60.7285 15.7598H62.4375C62.3828 16.4115 62.2005 16.9925 61.8906 17.5029C61.5807 18.0088 61.1455 18.4076 60.585 18.6992C60.0244 18.9909 59.3431 19.1367 58.541 19.1367C57.9258 19.1367 57.3721 19.0273 56.8799 18.8086C56.3877 18.5853 55.9661 18.2708 55.6152 17.8652C55.2643 17.4551 54.9954 16.9606 54.8086 16.3818C54.6263 15.8031 54.5352 15.1559 54.5352 14.4404V13.6133C54.5352 12.8978 54.6286 12.2507 54.8154 11.6719C55.0068 11.0931 55.2803 10.5986 55.6357 10.1885C55.9912 9.77376 56.4173 9.45703 56.9141 9.23828C57.4154 9.01953 57.9782 8.91016 58.6025 8.91016C59.3955 8.91016 60.0654 9.05599 60.6123 9.34766C61.1592 9.63932 61.583 10.0426 61.8838 10.5576C62.1891 11.0726 62.376 11.6628 62.4443 12.3281H60.7354C60.6898 11.8997 60.5895 11.5329 60.4346 11.2275C60.2842 10.9222 60.0609 10.6898 59.7646 10.5303C59.4684 10.3662 59.0811 10.2842 58.6025 10.2842C58.2106 10.2842 57.8688 10.3571 57.5771 10.5029C57.2855 10.6488 57.0417 10.863 56.8457 11.1455C56.6497 11.4281 56.5016 11.7767 56.4014 12.1914C56.3057 12.6016 56.2578 13.071 56.2578 13.5996V14.4404C56.2578 14.9417 56.3011 15.3975 56.3877 15.8076C56.4788 16.2132 56.6156 16.5618 56.7979 16.8535C56.9847 17.1452 57.2217 17.3708 57.5088 17.5303C57.7959 17.6898 58.14 17.7695 58.541 17.7695C59.0286 17.7695 59.4229 17.6921 59.7236 17.5371C60.029 17.3822 60.2591 17.1566 60.4141 16.8604C60.5736 16.5596 60.6784 16.1927 60.7285 15.7598ZM71.9326 13.75V14.2969C71.9326 15.0488 71.8346 15.7233 71.6387 16.3203C71.4427 16.9173 71.1624 17.4255 70.7979 17.8447C70.4378 18.264 70.0049 18.5853 69.499 18.8086C68.9932 19.0273 68.4326 19.1367 67.8174 19.1367C67.2067 19.1367 66.6484 19.0273 66.1426 18.8086C65.6413 18.5853 65.2061 18.264 64.8369 17.8447C64.4678 17.4255 64.1807 16.9173 63.9756 16.3203C63.7751 15.7233 63.6748 15.0488 63.6748 14.2969V13.75C63.6748 12.998 63.7751 12.3258 63.9756 11.7334C64.1761 11.1364 64.4587 10.6283 64.8232 10.209C65.1924 9.78516 65.6276 9.46387 66.1289 9.24512C66.6348 9.02181 67.193 8.91016 67.8037 8.91016C68.4189 8.91016 68.9795 9.02181 69.4854 9.24512C69.9912 9.46387 70.4264 9.78516 70.791 10.209C71.1556 10.6283 71.4359 11.1364 71.6318 11.7334C71.8324 12.3258 71.9326 12.998 71.9326 13.75ZM70.2168 14.2969V13.7363C70.2168 13.1803 70.1621 12.6904 70.0527 12.2666C69.9479 11.8382 69.7907 11.4805 69.5811 11.1934C69.376 10.9017 69.123 10.6829 68.8223 10.5371C68.5215 10.3867 68.182 10.3115 67.8037 10.3115C67.4255 10.3115 67.0882 10.3867 66.792 10.5371C66.4958 10.6829 66.2428 10.9017 66.0332 11.1934C65.8281 11.4805 65.6709 11.8382 65.5615 12.2666C65.4521 12.6904 65.3975 13.1803 65.3975 13.7363V14.2969C65.3975 14.8529 65.4521 15.3451 65.5615 15.7734C65.6709 16.2018 65.8304 16.5641 66.04 16.8604C66.2542 17.152 66.5094 17.373 66.8057 17.5234C67.1019 17.6693 67.4391 17.7422 67.8174 17.7422C68.2002 17.7422 68.5397 17.6693 68.8359 17.5234C69.1322 17.373 69.3828 17.152 69.5879 16.8604C69.793 16.5641 69.9479 16.2018 70.0527 15.7734C70.1621 15.3451 70.2168 14.8529 70.2168 14.2969ZM74.3457 9.04688H75.877L78.7549 16.7236L81.626 9.04688H83.1572L79.3564 19H78.1396L74.3457 9.04688ZM73.6484 9.04688H75.1045L75.3574 15.6914V19H73.6484V9.04688ZM82.3984 9.04688H83.8613V19H82.1455V15.6914L82.3984 9.04688ZM86.5957 9.04688H88.127L91.0049 16.7236L93.876 9.04688H95.4072L91.6064 19H90.3896L86.5957 9.04688ZM85.8984 9.04688H87.3545L87.6074 15.6914V19H85.8984V9.04688ZM94.6484 9.04688H96.1113V19H94.3955V15.6914L94.6484 9.04688ZM99.9805 9.04688V19H98.2646V9.04688H99.9805ZM106.003 9.04688V19H104.301V9.04688H106.003ZM109.127 9.04688V10.4141H101.204V9.04688H109.127ZM111.137 9.04688H112.668L115.546 16.7236L118.417 9.04688H119.948L116.147 19H114.931L111.137 9.04688ZM110.439 9.04688H111.896L112.148 15.6914V19H110.439V9.04688ZM119.189 9.04688H120.652V19H118.937V15.6914L119.189 9.04688ZM129.204 17.6396V19H123.92V17.6396H129.204ZM124.405 9.04688V19H122.689V9.04688H124.405ZM128.514 13.2031V14.543H123.92V13.2031H128.514ZM129.17 9.04688V10.4141H123.92V9.04688H129.17ZM138.501 9.04688V19H136.785L132.321 11.8701V19H130.605V9.04688H132.321L136.799 16.1904V9.04688H138.501ZM144.435 9.04688V19H142.732V9.04688H144.435ZM147.559 9.04688V10.4141H139.636V9.04688H147.559Z" fill="white"/>
</svg>
