<svg width="109" height="105" viewBox="0 0 109 105" fill="none" xmlns="http://www.w3.org/2000/svg">
<g filter="url(#filter0_d_106_4596)">
<rect x="7" y="7" width="94.4344" height="91" rx="12" fill="#090A0F" shape-rendering="crispEdges"/>
<rect x="6.5" y="6.5" width="95.4344" height="92" rx="12.5" stroke="#FF5656" shape-rendering="crispEdges"/>
<rect x="11.5" y="11.5" width="85.4344" height="82" rx="7.5" stroke="white" stroke-opacity="0.4"/>
<path d="M46.25 69.9351H45.75C45.3358 69.9351 45 70.2708 45 70.6851V71.1851C45 71.5993 45.3358 71.9351 45.75 71.9351H46.25C46.6642 71.9351 47 71.5993 47 71.1851V70.6851C47 70.2708 46.6642 69.9351 46.25 69.9351Z" fill="#FFD875"/>
<path d="M37.25 69.9351H36.75C36.3358 69.9351 36 70.2708 36 70.6851V71.1851C36 71.5993 36.3358 71.9351 36.75 71.9351H37.25C37.6642 71.9351 38 71.5993 38 71.1851V70.6851C38 70.2708 37.6642 69.9351 37.25 69.9351Z" fill="#FFD875"/>
<path d="M55.25 69.9351H54.75C54.3358 69.9351 54 70.2708 54 70.6851V71.1851C54 71.5993 54.3358 71.9351 54.75 71.9351H55.25C55.6642 71.9351 56 71.5993 56 71.1851V70.6851C56 70.2708 55.6642 69.9351 55.25 69.9351Z" fill="#FFD875"/>
<path d="M64.25 69.9351H63.75C63.3358 69.9351 63 70.2708 63 70.6851V71.1851C63 71.5993 63.3358 71.9351 63.75 71.9351H64.25C64.6642 71.9351 65 71.5993 65 71.1851V70.6851C65 70.2708 64.6642 69.9351 64.25 69.9351Z" fill="#FFD875"/>
<path d="M50.25 66.4351H49.75C49.3358 66.4351 49 66.7708 49 67.1851V67.6851C49 68.0993 49.3358 68.4351 49.75 68.4351H50.25C50.6642 68.4351 51 68.0993 51 67.6851V67.1851C51 66.7708 50.6642 66.4351 50.25 66.4351Z" fill="#FFD875"/>
<path d="M41.25 66.4351H40.75C40.3358 66.4351 40 66.7708 40 67.1851V67.6851C40 68.0993 40.3358 68.4351 40.75 68.4351H41.25C41.6642 68.4351 42 68.0993 42 67.6851V67.1851C42 66.7708 41.6642 66.4351 41.25 66.4351Z" fill="#FFD875"/>
<path d="M59.25 66.4351H58.75C58.3358 66.4351 58 66.7708 58 67.1851V67.6851C58 68.0993 58.3358 68.4351 58.75 68.4351H59.25C59.6642 68.4351 60 68.0993 60 67.6851V67.1851C60 66.7708 59.6642 66.4351 59.25 66.4351Z" fill="#FFD875"/>
<path d="M68.25 66.4351H67.75C67.3358 66.4351 67 66.7708 67 67.1851V67.6851C67 68.0993 67.3358 68.4351 67.75 68.4351H68.25C68.6642 68.4351 69 68.0993 69 67.6851V67.1851C69 66.7708 68.6642 66.4351 68.25 66.4351Z" fill="#FFD875"/>
<path d="M73.25 69.9351H72.75C72.3358 69.9351 72 70.2708 72 70.6851V71.1851C72 71.5993 72.3358 71.9351 72.75 71.9351H73.25C73.6642 71.9351 74 71.5993 74 71.1851V70.6851C74 70.2708 73.6642 69.9351 73.25 69.9351Z" fill="#FFD875"/>
<path d="M75.8033 52.0011H32.6311C29.5211 52.0011 27 54.0741 27 56.6313V73.9347C27 76.4919 29.5211 78.5649 32.6311 78.5649H75.8033C78.9132 78.5649 81.4344 76.4919 81.4344 73.9347V56.6313C81.4344 54.0741 78.9132 52.0011 75.8033 52.0011Z" stroke="#FBFF42" stroke-width="1.5" stroke-linecap="round" stroke-linejoin="round"/>
<path d="M27.2083 55.4351L35.5194 31.4009C36.5451 28.4352 39.4261 26.4351 42.6767 26.4351H65.7398C68.9866 26.4351 71.8714 28.4352 72.8971 31.4009L81.2083 55.4351" stroke="#FBFF42" stroke-width="1.5" stroke-linecap="round" stroke-linejoin="round"/>
<path d="M36.3853 59.7172H46.709" stroke="#FBFF42" stroke-width="1.5" stroke-linecap="round" stroke-linejoin="round"/>
<path d="M46.1312 44.238C45.3098 44.238 44.5818 44 43.9472 43.524C43.3218 43.0387 42.8365 42.3667 42.4912 41.508C42.1458 40.6493 41.9732 39.6693 41.9732 38.568C41.9732 37.4573 42.1458 36.4727 42.4912 35.614C42.8365 34.746 43.3218 34.0693 43.9472 33.584C44.5818 33.0987 45.3098 32.856 46.1312 32.856C46.9525 32.856 47.6758 33.0987 48.3012 33.584C48.9265 34.0693 49.4118 34.746 49.7572 35.614C50.1025 36.4727 50.2752 37.4573 50.2752 38.568C50.2752 39.6693 50.1025 40.6493 49.7572 41.508C49.4118 42.3667 48.9265 43.0387 48.3012 43.524C47.6758 44 46.9525 44.238 46.1312 44.238ZM46.1452 42.838C46.6492 42.838 47.0878 42.67 47.4612 42.334C47.8438 41.9887 48.1378 41.494 48.3432 40.85C48.5578 40.206 48.6652 39.4453 48.6652 38.568C48.6652 37.6813 48.5578 36.916 48.3432 36.272C48.1378 35.6187 47.8438 35.1193 47.4612 34.774C47.0878 34.4287 46.6492 34.256 46.1452 34.256C45.6318 34.256 45.1792 34.4287 44.7872 34.774C44.4045 35.1193 44.1058 35.6187 43.8912 36.272C43.6765 36.916 43.5692 37.6813 43.5692 38.568C43.5692 39.4453 43.6765 40.206 43.8912 40.85C44.1058 41.494 44.4045 41.9887 44.7872 42.334C45.1792 42.67 45.6318 42.838 46.1452 42.838ZM51.1736 44C51.7802 43.1133 52.2282 42.4553 52.5176 42.026C52.8069 41.5873 53.2456 40.9387 53.8336 40.08V40.052C53.2362 39.1933 52.7882 38.554 52.4896 38.134C52.2002 37.7047 51.7662 37.07 51.1876 36.23H52.8256C53.2642 36.8927 53.5909 37.3827 53.8056 37.7C54.0296 38.0173 54.3562 38.498 54.7856 39.142H54.8136C55.2522 38.4793 55.5789 37.9893 55.7936 37.672C56.0176 37.3547 56.3442 36.874 56.7736 36.23H58.3696C57.7722 37.098 57.3289 37.742 57.0396 38.162C56.7502 38.582 56.3116 39.212 55.7236 40.052V40.08C56.3302 40.9667 56.7782 41.6293 57.0676 42.068C57.3569 42.4973 57.7956 43.1413 58.3836 44H56.7876C56.3396 43.328 56.0036 42.8333 55.7796 42.516C55.5649 42.1893 55.2429 41.704 54.8136 41.06H54.7856C54.3376 41.732 54.0016 42.2313 53.7776 42.558C53.5629 42.8753 53.2409 43.356 52.8116 44H51.1736ZM62.9218 44.238C62.3151 44.238 61.7364 44.14 61.1858 43.944C60.6444 43.7387 60.1684 43.4447 59.7578 43.062C59.3564 42.67 59.0624 42.2127 58.8758 41.69L60.0938 40.934C60.3364 41.5687 60.7144 42.054 61.2278 42.39C61.7504 42.726 62.3198 42.894 62.9358 42.894C63.3931 42.894 63.8084 42.796 64.1818 42.6C64.5551 42.3947 64.8491 42.11 65.0638 41.746C65.2878 41.3727 65.3998 40.948 65.3998 40.472C65.3998 40.0147 65.2924 39.6133 65.0778 39.268C64.8724 38.9133 64.5924 38.638 64.2378 38.442C63.8831 38.246 63.4818 38.148 63.0338 38.148C62.5204 38.148 62.0678 38.274 61.6758 38.526C61.2838 38.7687 60.9851 39.0907 60.7798 39.492L59.5338 39.114L60.8358 33.08H66.3238V34.396C65.3251 34.396 64.5831 34.396 64.0978 34.396C63.6124 34.396 62.8844 34.396 61.9138 34.396C61.7364 35.18 61.6058 35.7633 61.5218 36.146C61.4471 36.5193 61.3258 37.084 61.1578 37.84H61.1858C61.4004 37.5787 61.7038 37.364 62.0958 37.196C62.4971 37.0187 62.9311 36.93 63.3978 36.93C63.9764 36.93 64.5411 37.0607 65.0918 37.322C65.6424 37.574 66.0951 37.966 66.4498 38.498C66.8044 39.0207 66.9818 39.6553 66.9818 40.402C66.9818 41.1393 66.7998 41.802 66.4358 42.39C66.0811 42.9687 65.5911 43.4213 64.9658 43.748C64.3498 44.0747 63.6684 44.238 62.9218 44.238Z" fill="white"/>
</g>
<defs>
<filter id="filter0_d_106_4596" x="0" y="0" width="108.434" height="105" filterUnits="userSpaceOnUse" color-interpolation-filters="sRGB">
<feFlood flood-opacity="0" result="BackgroundImageFix"/>
<feColorMatrix in="SourceAlpha" type="matrix" values="0 0 0 0 0 0 0 0 0 0 0 0 0 0 0 0 0 0 127 0" result="hardAlpha"/>
<feOffset/>
<feGaussianBlur stdDeviation="3"/>
<feComposite in2="hardAlpha" operator="out"/>
<feColorMatrix type="matrix" values="0 0 0 0 1 0 0 0 0 0.337255 0 0 0 0 0.337255 0 0 0 0.5 0"/>
<feBlend mode="normal" in2="BackgroundImageFix" result="effect1_dropShadow_106_4596"/>
<feBlend mode="normal" in="SourceGraphic" in2="effect1_dropShadow_106_4596" result="shape"/>
</filter>
</defs>
</svg>
