<svg width="243" height="117" viewBox="0 0 243 117" fill="none" xmlns="http://www.w3.org/2000/svg">
<path d="M242.707 8.70711C243.098 8.31658 243.098 7.68342 242.707 7.29289L236.343 0.928932C235.953 0.538408 235.319 0.538408 234.929 0.928932C234.538 1.31946 234.538 1.95262 234.929 2.34315L240.586 8L234.929 13.6569C234.538 14.0474 234.538 14.6805 234.929 15.0711C235.319 15.4616 235.953 15.4616 236.343 15.0711L242.707 8.70711ZM2 117V33H0V117H2ZM26 9H242V7H26V9ZM2 33C2 19.7452 12.7452 9 26 9V7C11.6406 7 0 18.6406 0 33H2Z" fill="#FF7070"/>
</svg>
