<svg width="127" height="45" viewBox="0 0 127 45" fill="none" xmlns="http://www.w3.org/2000/svg">
<rect x="0.5" y="1" width="126" height="43" rx="11.5" stroke="white" stroke-opacity="0.16"/>
<path d="M32.3888 30C33.3088 30 34.0554 29.2533 34.0554 28.3333V27.2222C34.0554 26.9156 33.8066 26.6667 33.4999 26.6667H25.1666C24.8599 26.6667 24.611 26.9156 24.611 27.2222V28.3333C24.611 29.2533 23.8643 30 22.9443 30C22.0243 30 21.2777 29.2533 21.2777 28.3333V16.6667C21.2777 15.7467 20.531 15 19.611 15C18.691 15 17.9443 15.7467 17.9443 16.6667V18.8889C17.9443 19.5022 18.4421 20 19.0554 20H21.2777" stroke="white" stroke-linecap="round" stroke-linejoin="round"/>
<path d="M32.3888 30H22.9443" stroke="white" stroke-linecap="round" stroke-linejoin="round"/>
<path d="M19.6113 15H30.1669C31.0869 15 31.8336 15.7467 31.8336 16.6667V23.8889" stroke="white" stroke-linecap="round" stroke-linejoin="round"/>
<path d="M24.333 18.8887H28.7775" stroke="white" stroke-linecap="round" stroke-linejoin="round"/>
<path d="M24.333 22.2227H28.7775" stroke="white" stroke-linecap="round" stroke-linejoin="round"/>
<rect x="44" y="12.5" width="1" height="20" fill="white" fill-opacity="0.2"/>
<path d="M54.4325 28.5V17.58H58.5345C59.6265 17.58 62.2585 18.14 62.2585 21.01C62.2585 23.026 61.0545 24.062 59.6965 24.328V24.342L62.4825 28.5H60.4945L57.8205 24.468H56.1965C56.1965 25.812 56.1965 27.156 56.1965 28.5H54.4325ZM56.1965 22.9H58.2405C59.2625 22.9 60.4105 22.438 60.4105 21.052C60.4105 19.694 59.2485 19.176 58.2265 19.176H56.1965C56.1965 20.52 56.1965 21.57 56.1965 22.9ZM67.2375 28.738C64.8855 28.738 63.2475 27.044 63.2475 24.622C63.2475 22.2 64.8855 20.492 67.2375 20.492C69.5895 20.492 71.2135 22.2 71.2135 24.622C71.2135 27.044 69.5895 28.738 67.2375 28.738ZM64.9835 24.622C64.9835 26.106 65.9075 27.17 67.2375 27.17C68.5675 27.17 69.4915 26.106 69.4915 24.622C69.4915 23.124 68.5675 22.06 67.2375 22.06C65.9075 22.06 64.9835 23.124 64.9835 24.622ZM72.7893 28.5V17.3H74.4413V28.5H72.7893ZM76.5354 28.5V17.3H78.1874V28.5H76.5354ZM82.9834 28.738C81.3734 28.738 80.1834 27.772 80.1834 25.602V20.716H81.8494V25.014C81.8494 26.442 82.4934 27.17 83.4594 27.17C84.6354 27.17 85.3074 26.12 85.3074 24.958V20.716H86.9734V26.064C86.9734 27.366 87.0714 27.884 87.2254 28.5H85.5734C85.4614 28.038 85.4054 27.688 85.4054 27.408H85.3774C84.9014 28.248 84.1314 28.738 82.9834 28.738ZM89.0861 31.58V20.716H90.7101V22.018H90.7381C91.4241 20.954 92.3341 20.492 93.3981 20.492C95.4981 20.492 96.8421 22.298 96.8421 24.58C96.8421 27.156 95.1901 28.738 93.2861 28.738C92.0681 28.738 91.2141 28.094 90.7381 27.324V31.58H89.0861ZM90.7101 24.622C90.7101 26.12 91.6761 27.17 92.9361 27.17C94.2101 27.17 95.1201 26.092 95.1201 24.622C95.1201 23.138 94.1961 22.06 92.9361 22.06C91.6761 22.06 90.7101 23.11 90.7101 24.622ZM102.065 28.5V17.58H106.447C108.617 17.58 109.821 18.84 109.821 20.408C109.821 21.458 109.247 22.55 108.015 22.9V22.928C109.331 23.194 110.199 24.118 110.199 25.532C110.199 27.646 108.253 28.5 106.573 28.5H102.065ZM103.829 26.876H106.181C107.245 26.876 108.323 26.442 108.323 25.336C108.323 24.23 107.231 23.754 106.167 23.754H103.829C103.829 24.79 103.829 25.84 103.829 26.876ZM103.829 22.228H105.929C107.007 22.228 107.973 21.78 107.973 20.73C107.973 19.638 106.937 19.204 105.915 19.204H103.829C103.829 20.212 103.829 21.22 103.829 22.228Z" fill="white"/>
</svg>
