<?xml version="1.0" encoding="UTF-8"?><svg xmlns="http://www.w3.org/2000/svg" xmlns:xlink="http://www.w3.org/1999/xlink" viewBox="0 0 200 200"><defs><style>.g{fill:url(#e);}.h{fill:url(#d);}.i{fill:url(#f);}.j{fill:url(#c);}.k{fill:url(#b);}.l,.m{fill:#fff;}.n{stroke:#7fa4ad;}.n,.o,.p,.q{fill:none;stroke-linecap:round;stroke-linejoin:round;stroke-width:4px;}.o{stroke:#294784;}.p{stroke:#468267;}.q{stroke:#798889;}.r{isolation:isolate;}.m{mix-blend-mode:overlay;opacity:.3;}</style><linearGradient id="b" x1="100" y1="104.97" x2="100" y2="59.95" gradientTransform="matrix(1, 0, 0, 1, 0, 0)" gradientUnits="userSpaceOnUse"><stop offset="0" stop-color="#2b4fc4"/><stop offset="1" stop-color="#5e77cc"/></linearGradient><linearGradient id="c" x1="136.34" y1="127.58" x2="136.34" y2="136.94" gradientTransform="matrix(1, 0, 0, 1, 0, 0)" gradientUnits="userSpaceOnUse"><stop offset="0" stop-color="#8ee7b6"/><stop offset="1" stop-color="#36d177"/></linearGradient><linearGradient id="d" x1="100" y1="124.26" x2="100" y2="140.26" gradientTransform="matrix(1, 0, 0, 1, 0, 0)" gradientUnits="userSpaceOnUse"><stop offset="0" stop-color="#cfecf9"/><stop offset="1" stop-color="#97ecf9"/></linearGradient><linearGradient id="e" x1="57.98" y1="78.31" x2="107.55" y2="78.31" xlink:href="#c"/><linearGradient id="f" x1="57.98" y1="86.61" x2="128.64" y2="86.61" xlink:href="#c"/></defs><g class="r"><g id="a"><g><path class="l" d="M156.88,150H43.12c-8.83,0-15.77-7.55-15.03-16.35l5.89-69.84c.66-7.81,7.19-13.81,15.03-13.81h101.98c7.84,0,14.37,6,15.03,13.81l5.89,69.84c.74,8.8-6.2,16.35-15.03,16.35Z"/><path class="q" d="M156.88,150H43.12c-8.83,0-15.77-7.55-15.03-16.35l5.89-69.84c.66-7.81,7.19-13.81,15.03-13.81h101.98c7.84,0,14.37,6,15.03,13.81l5.89,69.84c.74,8.8-6.2,16.35-15.03,16.35Z"/><line class="q" x1="42.19" y1="114.19" x2="157.81" y2="114.19"/><path class="k" d="M43.46,67.02l-2.45,33.24c-.19,2.54,1.83,4.71,4.38,4.71h109.23c2.55,0,4.56-2.17,4.38-4.71l-2.45-33.24c-.29-3.99-3.61-7.07-7.61-7.07H51.07c-4,0-7.32,3.08-7.61,7.07Z"/><path class="o" d="M43.46,67.02l-2.45,33.24c-.19,2.54,1.83,4.71,4.38,4.71h109.23c2.55,0,4.56-2.17,4.38-4.71l-2.45-33.24c-.29-3.99-3.61-7.07-7.61-7.07H51.07c-4,0-7.32,3.08-7.61,7.07Z"/><circle class="j" cx="136.34" cy="132.26" r="4.68"/><circle class="p" cx="136.34" cy="132.26" r="4.68"/><line class="o" x1="57.98" y1="132.26" x2="68.43" y2="132.26"/><rect class="h" x="80.71" y="124.26" width="38.58" height="16" rx="1.76" ry="1.76"/><path class="m" d="M102.22,124.26h-11.45l-10.06,14.16c.01,1.02,.84,1.84,1.86,1.84h8.29l11.36-16Z"/><rect class="n" x="80.71" y="124.26" width="38.58" height="16" rx="1.76" ry="1.76"/><g><path class="g" d="M107.55,78.31c0,.87-.71,1.58-1.58,1.58h-25.31c-.87,0-1.58-.71-1.58-1.58s.71-1.58,1.58-1.58h25.31c.87,0,1.58,.71,1.58,1.58Zm-32.16-1.58h-5.27c-.87,0-1.58,.71-1.58,1.58s.71,1.58,1.58,1.58h5.27c.87,0,1.58-.71,1.58-1.58s-.71-1.58-1.58-1.58Zm-10.55,0h-5.27c-.87,0-1.58,.71-1.58,1.58s.71,1.58,1.58,1.58h5.27c.87,0,1.58-.71,1.58-1.58s-.71-1.58-1.58-1.58Z"/><path class="i" d="M128.64,86.61c0,.87-.71,1.58-1.58,1.58h-37.96c-.87,0-1.58-.71-1.58-1.58s.71-1.58,1.58-1.58h37.96c.87,0,1.58,.71,1.58,1.58Zm-44.82-1.58h-5.27c-.87,0-1.58,.71-1.58,1.58s.71,1.58,1.58,1.58h5.27c.87,0,1.58-.71,1.58-1.58s-.71-1.58-1.58-1.58Zm-10.55,0h-13.71c-.87,0-1.58,.71-1.58,1.58s.71,1.58,1.58,1.58h13.71c.87,0,1.58-.71,1.58-1.58s-.71-1.58-1.58-1.58Z"/></g></g></g></g></svg>