<svg width="112" height="28" viewBox="0 0 112 28" fill="none" xmlns="http://www.w3.org/2000/svg">
<rect width="112" height="28" fill="#FF7070"/>
<path d="M13.5264 17.6396V19H8.24219V17.6396H13.5264ZM8.72754 9.04688V19H7.01172V9.04688H8.72754ZM12.8359 13.2031V14.543H8.24219V13.2031H12.8359ZM13.4922 9.04688V10.4141H8.24219V9.04688H13.4922ZM22.8232 9.04688V19H21.1074L16.6436 11.8701V19H14.9277V9.04688H16.6436L21.1211 16.1904V9.04688H22.8232ZM30.7461 15.7598H32.4551C32.4004 16.4115 32.2181 16.9925 31.9082 17.5029C31.5983 18.0088 31.1631 18.4076 30.6025 18.6992C30.042 18.9909 29.3607 19.1367 28.5586 19.1367C27.9434 19.1367 27.3896 19.0273 26.8975 18.8086C26.4053 18.5853 25.9837 18.2708 25.6328 17.8652C25.2819 17.4551 25.013 16.9606 24.8262 16.3818C24.6439 15.8031 24.5527 15.1559 24.5527 14.4404V13.6133C24.5527 12.8978 24.6462 12.2507 24.833 11.6719C25.0244 11.0931 25.2979 10.5986 25.6533 10.1885C26.0088 9.77376 26.4349 9.45703 26.9316 9.23828C27.4329 9.01953 27.9958 8.91016 28.6201 8.91016C29.4131 8.91016 30.083 9.05599 30.6299 9.34766C31.1768 9.63932 31.6006 10.0426 31.9014 10.5576C32.2067 11.0726 32.3936 11.6628 32.4619 12.3281H30.7529C30.7074 11.8997 30.6071 11.5329 30.4521 11.2275C30.3018 10.9222 30.0785 10.6898 29.7822 10.5303C29.486 10.3662 29.0986 10.2842 28.6201 10.2842C28.2282 10.2842 27.8864 10.3571 27.5947 10.5029C27.3031 10.6488 27.0592 10.863 26.8633 11.1455C26.6673 11.4281 26.5192 11.7767 26.4189 12.1914C26.3232 12.6016 26.2754 13.071 26.2754 13.5996V14.4404C26.2754 14.9417 26.3187 15.3975 26.4053 15.8076C26.4964 16.2132 26.6331 16.5618 26.8154 16.8535C27.0023 17.1452 27.2393 17.3708 27.5264 17.5303C27.8135 17.6898 28.1576 17.7695 28.5586 17.7695C29.0462 17.7695 29.4404 17.6921 29.7412 17.5371C30.0465 17.3822 30.2767 17.1566 30.4316 16.8604C30.5911 16.5596 30.696 16.1927 30.7461 15.7598ZM34.0137 9.04688H37.5342C38.2907 9.04688 38.9355 9.16081 39.4688 9.38867C40.002 9.61654 40.4098 9.95378 40.6924 10.4004C40.9795 10.8424 41.123 11.3893 41.123 12.041C41.123 12.5378 41.0319 12.9753 40.8496 13.3535C40.6673 13.7318 40.4098 14.0508 40.0771 14.3105C39.7445 14.5658 39.348 14.764 38.8877 14.9053L38.3682 15.1582H35.2031L35.1895 13.7979H37.5615C37.9717 13.7979 38.3135 13.7249 38.5869 13.5791C38.8604 13.4333 39.0654 13.235 39.2021 12.9844C39.3434 12.7292 39.4141 12.4421 39.4141 12.123C39.4141 11.7767 39.3457 11.4759 39.209 11.2207C39.0768 10.9609 38.8717 10.7627 38.5938 10.626C38.3158 10.4847 37.9626 10.4141 37.5342 10.4141H35.7295V19H34.0137V9.04688ZM39.6943 19L37.3564 14.5293L39.1543 14.5225L41.5264 18.9111V19H39.6943ZM43.4541 9.04688L45.7646 13.7979L48.0752 9.04688H49.9756L46.626 15.3359V19H44.8965V15.3359L41.5469 9.04688H43.4541ZM54.8428 15.2881H52.252V13.9277H54.8428C55.2939 13.9277 55.6585 13.8548 55.9365 13.709C56.2145 13.5632 56.4173 13.3626 56.5449 13.1074C56.6771 12.8477 56.7432 12.5514 56.7432 12.2188C56.7432 11.9043 56.6771 11.6104 56.5449 11.3369C56.4173 11.0589 56.2145 10.8356 55.9365 10.667C55.6585 10.4984 55.2939 10.4141 54.8428 10.4141H52.7783V19H51.0625V9.04688H54.8428C55.613 9.04688 56.2669 9.18359 56.8047 9.45703C57.347 9.72591 57.7594 10.0996 58.042 10.5781C58.3245 11.0521 58.4658 11.5944 58.4658 12.2051C58.4658 12.8477 58.3245 13.3991 58.042 13.8594C57.7594 14.3197 57.347 14.6729 56.8047 14.9189C56.2669 15.165 55.613 15.2881 54.8428 15.2881ZM64.0986 9.04688V19H62.3965V9.04688H64.0986ZM67.2227 9.04688V10.4141H59.2998V9.04688H67.2227ZM75.0498 17.6396V19H69.7656V17.6396H75.0498ZM70.251 9.04688V19H68.5352V9.04688H70.251ZM74.3594 13.2031V14.543H69.7656V13.2031H74.3594ZM75.0156 9.04688V10.4141H69.7656V9.04688H75.0156ZM79.3428 19H77.2168L77.2305 17.6396H79.3428C79.958 17.6396 80.473 17.5052 80.8877 17.2363C81.307 16.9674 81.6214 16.5824 81.8311 16.0811C82.0452 15.5798 82.1523 14.9827 82.1523 14.29V13.75C82.1523 13.2122 82.0908 12.736 81.9678 12.3213C81.8493 11.9066 81.6715 11.5579 81.4346 11.2754C81.2021 10.9928 80.915 10.7786 80.5732 10.6328C80.236 10.487 79.8464 10.4141 79.4043 10.4141H77.1758V9.04688H79.4043C80.0651 9.04688 80.6689 9.15853 81.2158 9.38184C81.7627 9.60059 82.2344 9.91732 82.6309 10.332C83.0319 10.7467 83.3395 11.2435 83.5537 11.8223C83.7679 12.401 83.875 13.0482 83.875 13.7637V14.29C83.875 15.0055 83.7679 15.6527 83.5537 16.2314C83.3395 16.8102 83.0319 17.307 82.6309 17.7217C82.2298 18.1318 81.7513 18.4486 81.1953 18.6719C80.6439 18.8906 80.0264 19 79.3428 19ZM78.167 9.04688V19H76.4512V9.04688H78.167ZM92.8506 9.04688V19H91.1484V9.04688H92.8506ZM95.9746 9.04688V10.4141H88.0518V9.04688H95.9746ZM98.5928 9.04688L100.705 12.6768L102.817 9.04688H104.793L101.785 13.9756L104.868 19H102.872L100.705 15.3018L98.5381 19H96.5352L99.625 13.9756L96.6104 9.04688H98.5928Z" fill="white"/>
</svg>
