<svg width="18" height="18" viewBox="0 0 18 18" fill="none" xmlns="http://www.w3.org/2000/svg">
<path d="M9.926 16.11C9.465 16.202 8.988 16.25 8.5 16.25C4.496 16.25 1.25 13.004 1.25 9C1.25 4.996 4.496 1.75 8.5 1.75C12.504 1.75 15.75 4.996 15.75 9C15.75 9.264 15.736 9.524 15.709 9.78" stroke="#090A0F" stroke-linecap="round" stroke-linejoin="round"/>
<path d="M11.126 10.768L17.066 12.938C17.316 13.029 17.309 13.386 17.055 13.467L14.336 14.337L13.466 17.056C13.385 17.31 13.028 17.317 12.937 17.067L10.767 11.127C10.685 10.904 10.902 10.687 11.126 10.768Z" stroke="#090A0F" stroke-linecap="round" stroke-linejoin="round"/>
<path d="M15.75 9C15.75 7.343 12.504 6 8.5 6C4.496 6 1.25 7.343 1.25 9C1.25 10.646 4.455 11.983 8.425 12" stroke="#090A0F" stroke-linecap="round" stroke-linejoin="round"/>
<path d="M11.486 8.293C11.339 4.621 10.058 1.75 8.5 1.75C6.843 1.75 5.5 4.996 5.5 9C5.5 13.004 6.843 16.25 8.5 16.25" stroke="#090A0F" stroke-linecap="round" stroke-linejoin="round"/>
</svg>
