<svg width="127" height="45" viewBox="0 0 127 45" fill="none" xmlns="http://www.w3.org/2000/svg">
<rect x="0.5" y="1" width="126" height="43" rx="11.5" stroke="white" stroke-opacity="0.16"/>
<path d="M32.3888 30C33.3088 30 34.0554 29.2533 34.0554 28.3333V27.2222C34.0554 26.9156 33.8066 26.6667 33.4999 26.6667H25.1666C24.8599 26.6667 24.611 26.9156 24.611 27.2222V28.3333C24.611 29.2533 23.8643 30 22.9443 30C22.0243 30 21.2777 29.2533 21.2777 28.3333V16.6667C21.2777 15.7467 20.531 15 19.611 15C18.691 15 17.9443 15.7467 17.9443 16.6667V18.8889C17.9443 19.5022 18.4421 20 19.0554 20H21.2777" stroke="white" stroke-linecap="round" stroke-linejoin="round"/>
<path d="M32.3888 30H22.9443" stroke="white" stroke-linecap="round" stroke-linejoin="round"/>
<path d="M19.6113 15H30.1669C31.0869 15 31.8336 15.7467 31.8336 16.6667V23.8889" stroke="white" stroke-linecap="round" stroke-linejoin="round"/>
<path d="M24.333 18.8887H28.7775" stroke="white" stroke-linecap="round" stroke-linejoin="round"/>
<path d="M24.333 22.2227H28.7775" stroke="white" stroke-linecap="round" stroke-linejoin="round"/>
<rect x="44" y="12.5" width="1" height="20" fill="white" fill-opacity="0.2"/>
<path d="M54.3163 28.5V17.58H58.4183C59.5103 17.58 62.1423 18.14 62.1423 21.01C62.1423 23.026 60.9383 24.062 59.5803 24.328V24.342L62.3663 28.5H60.3783L57.7043 24.468H56.0803C56.0803 25.812 56.0803 27.156 56.0803 28.5H54.3163ZM56.0803 22.9H58.1243C59.1463 22.9 60.2943 22.438 60.2943 21.052C60.2943 19.694 59.1323 19.176 58.1103 19.176H56.0803C56.0803 20.52 56.0803 21.57 56.0803 22.9ZM67.1213 28.738C64.7693 28.738 63.1313 27.044 63.1313 24.622C63.1313 22.2 64.7693 20.492 67.1213 20.492C69.4733 20.492 71.0973 22.2 71.0973 24.622C71.0973 27.044 69.4733 28.738 67.1213 28.738ZM64.8673 24.622C64.8673 26.106 65.7913 27.17 67.1213 27.17C68.4513 27.17 69.3753 26.106 69.3753 24.622C69.3753 23.124 68.4513 22.06 67.1213 22.06C65.7913 22.06 64.8673 23.124 64.8673 24.622ZM72.673 28.5V17.3H74.325V28.5H72.673ZM76.4191 28.5V17.3H78.0711V28.5H76.4191ZM82.8672 28.738C81.2572 28.738 80.0672 27.772 80.0672 25.602V20.716H81.7332V25.014C81.7332 26.442 82.3772 27.17 83.3432 27.17C84.5192 27.17 85.1912 26.12 85.1912 24.958V20.716H86.8572V26.064C86.8572 27.366 86.9552 27.884 87.1092 28.5H85.4572C85.3452 28.038 85.2892 27.688 85.2892 27.408H85.2612C84.7852 28.248 84.0152 28.738 82.8672 28.738ZM88.9699 31.58V20.716H90.5939V22.018H90.6219C91.3079 20.954 92.2179 20.492 93.2819 20.492C95.3819 20.492 96.7259 22.298 96.7259 24.58C96.7259 27.156 95.0739 28.738 93.1699 28.738C91.9519 28.738 91.0979 28.094 90.6219 27.324V31.58H88.9699ZM90.5939 24.622C90.5939 26.12 91.5599 27.17 92.8199 27.17C94.0939 27.17 95.0039 26.092 95.0039 24.622C95.0039 23.138 94.0799 22.06 92.8199 22.06C91.5599 22.06 90.5939 23.11 90.5939 24.622ZM100.349 28.5L104.591 17.58H106.621L110.849 28.5H108.973C108.567 27.45 108.147 26.414 107.741 25.364H103.401C102.995 26.414 102.603 27.45 102.197 28.5H100.349ZM104.031 23.67H107.111C106.663 22.508 106.145 21.178 105.599 19.694H105.571L104.031 23.67Z" fill="white"/>
</svg>
